<?xml version="1.0" standalone="no"?>
<!DOCTYPE svg PUBLIC "-//W3C//DTD SVG 1.1//EN" "http://www.w3.org/Graphics/SVG/1.1/DTD/svg11.dtd" >
<svg>
<metadata>
Created by FontForge 20110222 at Wed Oct  1 12:09:40 2014
 By deploy user
Copyright (c) 1992-97 Hewlett-Packard. All rights reserved.
</metadata>
<defs>
<font id="Helvetica-Narrow" horiz-adv-x="934" >
  <font-face 
    font-family="Helvetica Narrow"
    font-weight="400"
    font-stretch="condensed"
    units-per-em="2048"
    panose-1="2 11 6 6 2 2 2 3 2 4"
    ascent="1638"
    descent="-410"
    x-height="1070"
    cap-height="1470"
    bbox="-643 -519 1842 1918"
    underline-thickness="102"
    underline-position="-154"
    unicode-range="U+0020-FB01"
  />
<missing-glyph horiz-adv-x="669" 
d="M0 1274h569v-1274h-569v1274zM100 1174v-1074h369v1074h-369z" />
    <glyph glyph-name=".notdef" horiz-adv-x="669" 
d="M0 1274h569v-1274h-569v1274zM100 1174v-1074h369v1074h-369z" />
    <glyph glyph-name="glyph1" horiz-adv-x="0" 
 />
    <glyph glyph-name="space" unicode=" " horiz-adv-x="467" 
 />
    <glyph glyph-name="exclam" unicode="!" horiz-adv-x="467" 
d="M192 352l-38 620v499h80h81v-499l-38 -620h-43v0h-42zM152 209h164v-209h-164v209z" />
    <glyph glyph-name="quotedbl" unicode="&#x22;" horiz-adv-x="596" 
d="M117 947v523h124v-523h-124zM355 947v523h124v-523h-124z" />
    <glyph glyph-name="numbersign" unicode="#" 
d="M445 1408l-47 -423h201l47 423h117l-47 -423h173l-15 -136h-173l-32 -286h174l-15 -136h-174l-47 -428h-117l47 428h-201l-47 -428h-117l47 428h-172l15 136h172l32 286h-173l15 136h173l47 423h117zM382 849l-31 -286h203l30 286h-202z" />
    <glyph glyph-name="dollar" unicode="$" 
d="M515 1578v-116q139 -15 220 -100q100 -103 106 -292v0h-140v0q-3 114 -66 176q-45 45 -120 57v-493q201 -66 278 -149q80 -88 80 -263q0 -201 -111 -319q-93 -98 -247 -116v-201h-82v200q-182 9 -275 114q-101 115 -105 352v0h151v0q3 -167 64 -241q55 -66 165 -73v535
q-196 66 -274 148q-82 88 -82 261q0 187 103 297q96 101 253 109v114h82zM433 1307q-97 -6 -150 -59q-58 -59 -58 -179q0 -104 52 -154q43 -39 156 -80v473v-1zM515 116q91 11 143 62q64 65 64 195q0 114 -50 167q-41 44 -157 83v-507z" />
    <glyph glyph-name="percent" unicode="%" horiz-adv-x="1493" 
d="M351 732q-125 0 -205 95t-80 245q0 143 84 246.5t201 103.5q126 0 206 -98t80 -252q0 -139 -84.5 -239.5t-201.5 -100.5v0zM351 1284q-70 0 -117.5 -60.5t-47.5 -149.5q0 -94 44.5 -149t120.5 -55q70 0 118 59t48 145q0 97 -45 153.5t-121 56.5v0zM371 -38l662 1475h89
l-662 -1475h-89zM1141 -10q-125 0 -205 95t-80 245q0 143 84 246.5t201 103.5q126 0 206 -98t80 -252q0 -139 -84.5 -239.5t-201.5 -100.5v0zM1141 542q-70 0 -117.5 -60.5t-47.5 -149.5q0 -94 44.5 -149t120.5 -55q70 0 118 59t48 145q0 97 -45 153.5t-121 56.5v0z" />
    <glyph glyph-name="ampersand" unicode="&#x26;" horiz-adv-x="1120" 
d="M215 1150q0 145 81 234.5t213 89.5q122 0 197 -86t75 -226q0 -115 -77 -232q-59 -92 -148 -157l205 -309l13 -19q38 115 50 238h138q-13 -145 -62 -288q-15 -45 -33 -86l216 -309h-195l-109 156q-72 -91 -159 -139t-191 -48q-159 0 -257 105.5t-98 277.5q0 163 80 283
q63 94 188 181l-19 28q-48 74 -78 158.5t-30 147.5zM440 125q66 0 129 32.5t106 89.5l20 29l-95 142l-178 270q-83 -55 -132 -118q-70 -90 -70 -198q0 -114 59 -181q59 -66 161 -66zM363 1164q0 -45 23 -106t63 -122l25 -38q61 45 103 101q60 81 60 163q0 73 -37 115.5
t-100 42.5t-100 -42t-37 -114z" />
    <glyph glyph-name="quotesingle" unicode="'" horiz-adv-x="322" 
d="M98 947v523h124v-523h-124z" />
    <glyph glyph-name="parenleft" unicode="(" horiz-adv-x="559" 
d="M115 537q0 256 69.5 492t213.5 471h104q-116 -228 -172 -464t-55 -499q0 -257 57.5 -493t176.5 -470h-104q-148 242 -219 478t-71 485z" />
    <glyph glyph-name="parenright" unicode=")" horiz-adv-x="559" 
d="M451 537q0 -256 -69.5 -492t-213.5 -471h-104q116 228 172 464t55 499q0 257 -57.5 493t-176.5 470h104q148 -242 219 -478t71 -485z" />
    <glyph glyph-name="asterisk" unicode="*" horiz-adv-x="653" 
d="M380 1470l-4 -230v0l182 75l32 -115l-186 -67v0l117 -180l-83 -72l-111 189v0l-109 -188l-84 72l118 183v0l-186 64l32 115l183 -75v0l-4 229h103z" />
    <glyph glyph-name="plus" unicode="+" horiz-adv-x="981" 
d="M428 442h-362v146h362v449h124v-449h362v-146h-362v-449h-124v449z" />
    <glyph glyph-name="comma" unicode="," horiz-adv-x="467" 
d="M145 108v108h89h88v-181q0 -152 -42.5 -232.5t-134.5 -102.5v0v95v0q52 8 73 70q16 47 16 135v0h-89v108z" />
    <glyph glyph-name="hyphen" unicode="-" horiz-adv-x="559" 
d="M74 659h410v-185h-410v185z" />
    <glyph glyph-name="period" unicode="." horiz-adv-x="467" 
d="M145 216h174v-216h-174v216z" />
    <glyph glyph-name="slash" unicode="/" horiz-adv-x="467" 
d="M495 1508l-413 -1545h-110l413 1545h110z" />
    <glyph glyph-name="zero" unicode="0" 
d="M467 -38q-194 0 -300 189.5t-106 538.5q0 358 106 552.5t300 194.5q195 0 300.5 -194.5t105.5 -552.5q0 -349 -105.5 -538.5t-300.5 -189.5v0zM467 121q121 0 185.5 147.5t64.5 423.5q1 295 -61.5 440.5t-188.5 145.5q-125 0 -187 -145.5t-63 -440.5q0 -276 65 -423.5
t185 -147.5v0z" />
    <glyph glyph-name="one" unicode="1" 
d="M450 0v1025v0h-280v139q155 5 222 62q68 58 99 211h115v0v-1437v0h-78h-78v0z" />
    <glyph glyph-name="two" unicode="2" 
d="M852 1014q0 -158 -69.5 -265t-239.5 -212q-205 -125 -283 -246q-35 -55 -53 -122v0h645v-169h-809v0q0 229 101 385t347 307q112 68 158 139t46 176q0 122 -65 196.5t-172 74.5q-111 0 -172.5 -91t-63.5 -258v0h-147v0q4 243 109 375.5t295 132.5q168 0 271 -117
q102 -116 102 -306z" />
    <glyph glyph-name="three" unicode="3" 
d="M679 1045q0 103 -58.5 168t-152.5 65q-112 0 -174.5 -81.5t-64.5 -231.5v0h-147v0q3 226 105 349t286 123q156 0 259.5 -108t103.5 -271q0 -158 -108 -263l-44 -37v0q55 -21 93 -55q100 -89 100 -274q0 -214 -111 -340.5t-299 -126.5q-193 0 -300 123t-110 349v0h154v0
q2 -150 68.5 -232t186.5 -82q113 0 184 75t71 195q0 132 -67 205t-188 73h-90v150h74q115 0 172 57q57 56 57 170z" />
    <glyph glyph-name="four" unicode="4" 
d="M562 345h-521v87v87l538 917h66h66v-939v0h168v-152h-168v0v-345h-149v345v0zM562 497v0v672v0v0l-371 -650l-13 -22v0h384z" />
    <glyph glyph-name="five" unicode="5" 
d="M862 466q0 -231 -109.5 -367.5t-295.5 -136.5q-179 0 -284.5 101.5t-119.5 288.5v0h154v0q9 -111 73.5 -171.5t175.5 -60.5t180.5 89t69.5 230q0 146 -69.5 237.5t-180.5 91.5q-67 0 -132 -40.5t-96 -101.5l-127 8l93 774v0h608v-177h-501v0l-46 -383v0q102 78 226 78
q163 0 272 -132q109 -131 109 -328z" />
    <glyph glyph-name="six" unicode="6" 
d="M499 1437q152 0 243 -100.5t105 -284.5v0h-148v0q-9 108 -61 167t-139 59q-143 0 -217 -157q-65 -139 -71 -388v0l8 13q106 166 280 166q160 0 266 -129.5t106 -323.5q0 -213 -106 -355t-266 -142q-214 0 -325 178.5t-111 521.5q0 380 112 578q111 197 324 197zM234 451
q0 -146 70.5 -238t183.5 -92q101 0 164 92t63 238q0 134 -64.5 218t-166.5 84q-111 0 -181 -84q-69 -84 -69 -218z" />
    <glyph glyph-name="seven" unicode="7" 
d="M232 0q69 393 173 656q101 254 307 575v0h-651v177h818v-77v-78q-216 -334 -318 -597t-169 -656h-160z" />
    <glyph glyph-name="eight" unicode="8" 
d="M678 763v0q45 -23 81 -58q109 -105 109 -283q0 -211 -109 -335.5t-294 -124.5t-293.5 122.5t-108.5 329.5q0 182 109 289q36 36 81 60v0q-26 19 -49 41q-97 97 -97 262q0 170 97 270.5t261 100.5t261 -100.5t97 -270.5q0 -165 -97 -263q-22 -22 -48 -40zM465 833
q96 0 149 57.5t53 161.5q0 107 -53 166.5t-149 59.5t-149 -59.5t-53 -166.5q0 -104 53 -162q53 -57 149 -57zM465 683q-116 0 -181 -75t-65 -210q0 -131 65 -204t181 -73q117 0 182 73t65 204q0 135 -65 210t-182 75z" />
    <glyph glyph-name="nine" unicode="9" 
d="M434 -39q-149 0 -238 100.5t-103 284.5v0h146v0q9 -112 59.5 -173t135.5 -61q139 0 211 170q58 139 69 378v0l-5 -8q-104 -166 -274 -166q-157 0 -261 129.5t-104 323.5q0 213 109 355t272 142q202 0 306.5 -168t104.5 -490q0 -400 -110 -609q-109 -208 -318 -208z
M691 947q0 156 -63.5 243t-177.5 87q-99 0 -161.5 -92t-62.5 -238q0 -134 62.5 -218t161.5 -84q107 0 174 84t67 218z" />
    <glyph glyph-name="colon" unicode=":" horiz-adv-x="467" 
d="M145 216h174v-216h-174v216zM145 1059h174v-216h-174v216z" />
    <glyph glyph-name="semicolon" unicode=";" horiz-adv-x="467" 
d="M145 109v108h89h88v-183q0 -155 -42.5 -236.5t-134.5 -103.5v0v95v0q56 13 75 71q15 45 14 140v0h-89v109zM146 1059h174v-216h-174v216z" />
    <glyph glyph-name="less" unicode="&#x3c;" horiz-adv-x="981" 
d="M80 444v71v71l821 428v-164l-653 -334v0l653 -337v-163z" />
    <glyph glyph-name="equal" unicode="=" horiz-adv-x="981" 
d="M66 382h848v-149h-848v149zM66 798h848v-149h-848v149z" />
    <glyph glyph-name="greater" unicode="&#x3e;" horiz-adv-x="981" 
d="M901 444l-821 -428v163l653 337v0l-653 334v164l821 -428v-71v-71z" />
    <glyph glyph-name="question" unicode="?" 
d="M474 1334q-110 0 -163 -74t-64 -241v0h-153v0q14 232 111 353t269 121q158 0 254.5 -109t96.5 -286q0 -102 -39 -186t-137 -191q-70 -77 -95 -150.5t-22 -189.5h-146q-4 144 30.5 241.5t124.5 196.5q73 80 100.5 140t27.5 139q0 109 -53 173q-52 63 -142 63zM377 207h164
v-207h-164v207z" />
    <glyph glyph-name="at" unicode="@" horiz-adv-x="1704" 
d="M1116 404q84 0 158 144.5t74 307.5q0 222 -136 375.5t-333 153.5q-213 0 -360.5 -189.5t-147.5 -463.5t149 -463.5t366 -189.5q123 0 239 66.5t183 175.5h114q-77 -164 -222.5 -264.5t-305.5 -100.5q-272 0 -459 225t-187 551t182.5 551t446.5 225q244 0 412.5 -189
t168.5 -463q0 -219 -123.5 -397t-274.5 -178q-58 0 -88 43q-22 34 -21 77v0l-6 -7q-93 -113 -203 -113q-107 0 -174 95t-67 248q0 224 112.5 385.5t267.5 161.5q137 0 192 -132l8 -20v0l27 121v0h118l-135 -605q-16 -69 -10.5 -100t35.5 -31zM884 1022q-97 0 -171.5 -120.5
t-74.5 -277.5q0 -93 37 -145.5t103 -52.5q78 0 141.5 76.5t91.5 203.5q32 143 -2.5 229.5t-124.5 86.5z" />
    <glyph glyph-name="A" unicode="A" horiz-adv-x="1120" 
d="M23 0l454 1470h93h93l434 -1470v0h-91h-92v0l-117 428v0h-470v0l-118 -428v0h-93h-93v0zM566 1278l-188 -673v0h373v0l-185 673v0v0z" />
    <glyph glyph-name="B" unicode="B" horiz-adv-x="1120" 
d="M125 0v1470v0h81v0h443q156 0 251.5 -102.5t95.5 -269.5q0 -169 -95 -261q-29 -28 -64 -47v0q66 -27 114 -74q101 -100 101 -279q0 -210 -110.5 -323.5t-314.5 -113.5h-421v0h-81v0zM287 1301v-456v0h302q123 0 181 58t58 180q0 112 -54 165t-168 53h-319v0zM287 683
v-515v0h292q157 0 231 65t74 203q0 127 -64 187t-199 60h-334v0z" />
    <glyph glyph-name="C" unicode="C" horiz-adv-x="1212" 
d="M1142 544v0q-22 -279 -158.5 -430.5t-366.5 -151.5q-249 0 -396 210.5t-147 567.5q0 345 156 556.5t410 211.5q206 0 334 -125t157 -354v0h-159v0q-18 145 -104.5 223.5t-227.5 78.5q-184 0 -291 -162t-107 -442q0 -284 103 -436t295 -152q149 0 238.5 105.5t104.5 299.5
v0h159z" />
    <glyph glyph-name="D" unicode="D" horiz-adv-x="1212" 
d="M135 0v1470v0h81v0h381q257 0 396 -186.5t139 -529.5q0 -361 -137.5 -557.5t-391.5 -196.5h-387v0h-81v0zM297 168v0h306q179 0 270 144.5t91 425.5q0 278 -92.5 420.5t-274.5 142.5h-300v0v-1133z" />
    <glyph glyph-name="E" unicode="E" horiz-adv-x="1120" 
d="M145 0v0v1470v0h880v0v-87v-88v0h-718v0v-450v0h664v-88v-89v0h-664v0v-493v0h727v0v-87v-88v0h-889z" />
    <glyph glyph-name="F" unicode="F" horiz-adv-x="1026" 
d="M145 0v1470v0h834v0v-87v-88v0h-672v0v-450v0h596v-88v-89v0h-596v0v-668h-81h-81z" />
    <glyph glyph-name="G" unicode="G" horiz-adv-x="1307" 
d="M639 -38q-251 0 -405 210t-154 553q0 352 161 567.5t422 215.5q196 0 333 -132t164 -347v0h-159v0q-17 136 -113.5 219t-237.5 83q-186 0 -294 -163t-108 -445q0 -274 108 -433t294 -159q177 1 294 142q38 46 61.5 133t23.5 182v29v0h-375v171h528v-785h-104l-42 165v0
q-152 -205 -397 -206z" />
    <glyph glyph-name="H" unicode="H" horiz-adv-x="1212" 
d="M129 0v1470v0h81h81v0v-603v0h632v0v603v0h81h81v0v-1470v0h-81h-81v0v690v0h-632v0v-690v0h-81h-81v0z" />
    <glyph glyph-name="I" unicode="I" horiz-adv-x="467" 
d="M154 0v1470v0h81h81v0v-1470v0h-81h-81v0z" />
    <glyph glyph-name="J" unicode="J" horiz-adv-x="840" 
d="M557 1470v0h81h81v0v-1041q0 -230 -87.5 -348.5t-257.5 -118.5q-172 0 -261.5 107.5t-83.5 305.5v102h156v-102q-4 -117 45 -181t142 -64q92 0 138.5 75t46.5 224v0v1041z" />
    <glyph glyph-name="K" unicode="K" horiz-adv-x="1120" 
d="M127 0v1470v0h81h81v0v-713v0l580 713v0h112h113v0l-500 -593v0l520 -877v0h-104h-104v0l-428 741v0l-189 -225v0v-516v0h-81h-81v0z" />
    <glyph glyph-name="L" unicode="L" 
d="M127 0v0v1470v0h81h81v0v-1295v0h612v0v-87v-88v0h-774z" />
    <glyph glyph-name="M" unicode="M" horiz-adv-x="1399" 
d="M281 0v0h-79h-79v0v1470v0h116h116v0l346 -1236v0v0l345 1236v0h116h116v0v-1470v0h-76h-77v0v1238v0l-345 -1238h-77h-77l-345 1238v0v-1238z" />
    <glyph glyph-name="N" unicode="N" horiz-adv-x="1212" 
d="M286 0v0h-79h-80v0v1470v0h97h97v0l605 -1195v0v0v1195v0h79h80v0v-1470h-87h-88l-624 1188v0v0v-1188z" />
    <glyph glyph-name="O" unicode="O" horiz-adv-x="1307" 
d="M653 -38q-263 0 -425 210t-162 553q0 359 159 571t428 212q270 0 429 -212t159 -571q0 -343 -162 -553t-426 -210v0zM653 139q191 0 305.5 160.5t114.5 427.5q0 280 -112.5 442t-307.5 162q-194 0 -306.5 -162t-112.5 -442q0 -267 114.5 -427.5t304.5 -160.5v0z" />
    <glyph glyph-name="P" unicode="P" horiz-adv-x="1120" 
d="M145 0v1470v0h81v0h456q170 0 266 -109t96 -303q0 -209 -98.5 -322t-280.5 -113h-358v0v-623v0h-81h-81v0zM307 791v0h318q129 0 190 64.5t61 201.5q0 126 -57 185.5t-177 59.5h-335v0v-511z" />
    <glyph glyph-name="Q" unicode="Q" horiz-adv-x="1307" 
d="M1153 -120l-186 181v0q-131 -99 -314 -99q-263 0 -425 210t-162 553q0 352 162 567.5t425 215.5q264 0 426 -215.5t162 -567.5q0 -343 -162 -553l-7 -10v0l168 -162zM712 309l85 118l152 -146v0l12 16q112 157 112 430q0 280 -112.5 442t-307.5 162q-194 0 -306.5 -162
t-112.5 -442q0 -273 112.5 -430.5t306.5 -157.5q107 1 187 45v0z" />
    <glyph glyph-name="R" unicode="R" horiz-adv-x="1212" 
d="M147 0v1470v0h81v0h492q186 0 283 -104.5t97 -304.5q0 -185 -108 -294q-25 -25 -55 -46v0l30 -19q106 -77 111 -258l8 -266q2 -70 15 -98.5t48 -46.5v-32h-203q-6 15 -12.5 91t-9.5 171l-2 115q-2 136 -50.5 194t-159.5 58h-403v0v-630v0h-81h-81v0zM309 799v0h398
q116 0 170.5 60.5t54.5 188.5q0 130 -53.5 192t-165.5 62h-404v0v-503z" />
    <glyph glyph-name="S" unicode="S" horiz-adv-x="1120" 
d="M849 1044v0q-4 140 -79 216.5t-209 76.5q-140 0 -209.5 -64t-69.5 -192q0 -95 62 -142q61 -46 245 -90q257 -62 354 -156t97 -282q0 -207 -129.5 -328t-349.5 -121q-226 0 -350.5 132.5t-128.5 375.5v0h153v0q2 -161 87 -249t239 -88q159 0 238 63t79 190q0 115 -62 168
q-61 53 -245 97q-257 62 -354 151t-97 265q0 203 119 322t322 119q205 0 319.5 -121t121.5 -343v0h-153z" />
    <glyph glyph-name="T" unicode="T" horiz-adv-x="1026" 
d="M432 0v1295v0h-409v0v87v88v0h980v0v-87v-88v0h-409v0v-1295v0h-81h-81v0z" />
    <glyph glyph-name="U" unicode="U" horiz-adv-x="1212" 
d="M1081 602q1 -339 -110.5 -489.5t-363.5 -150.5q-251 0 -362 150.5t-112 489.5v868v0h81h81v0v-876q0 -241 75 -347.5t245 -106.5t245 106.5t75 347.5v876v0h73h73v0v-868z" />
    <glyph glyph-name="V" unicode="V" horiz-adv-x="1120" 
d="M33 1470v0h91h92v0l348 -1261v0v0l338 1261v0h92h93v0l-439 -1470h-87h-88z" />
    <glyph glyph-name="W" unicode="W" horiz-adv-x="1585" 
d="M340 0l-313 1470v0h87h88v0l226 -1204v0v0l274 1204h87h88l278 -1204v0v0l222 1204v0h90h91v0l-312 -1470h-87h-88l-281 1222v0v0l-275 -1222h-87h-88z" />
    <glyph glyph-name="X" unicode="X" horiz-adv-x="1120" 
d="M33 0l438 754v0l-408 716v0h100h100v0l305 -565v0v0l305 565v0h96h97v0l-404 -714v0l425 -756v0h-100h-100v0l-321 602v0v0l-334 -602v0h-99h-100v0z" />
    <glyph glyph-name="Y" unicode="Y" horiz-adv-x="1120" 
d="M478 593v0l-455 877v0h95h95v0l347 -697v0l341 697v0h97h97v0l-455 -873v0v-597h-81h-81v593z" />
    <glyph glyph-name="Z" unicode="Z" horiz-adv-x="1026" 
d="M39 173l731 1122v0h-681v0v87v88v0h891v-86v-87l-730 -1122v0h737v0v-87v-88v0h-948v86v87z" />
    <glyph glyph-name="bracketleft" unicode="[" horiz-adv-x="467" 
d="M106 -405v1883v0h314v-146h-181v0v-1591v0h181v-146h-314v0z" />
    <glyph glyph-name="backslash" unicode="\" horiz-adv-x="467" 
d="M382 -37l-410 1545h113l410 -1545h-113z" />
    <glyph glyph-name="bracketright" unicode="]" horiz-adv-x="467" 
d="M361 -405v0h-314v146h181v0v1591v0h-181v146h314v0v-1883z" />
    <glyph glyph-name="asciicircum" unicode="^" horiz-adv-x="788" 
d="M453 1407l357 -867h-127l-289 703v0l-289 -703h-127l357 867h59h59z" />
    <glyph glyph-name="underscore" unicode="_" 
d="M0 -256v102h934v-102h-934z" />
    <glyph glyph-name="grave" unicode="`" horiz-adv-x="559" 
d="M242 1213l-219 289h182l149 -289h-112z" />
    <glyph glyph-name="a" unicode="a" 
d="M342 -28q-126 0 -203.5 84.5t-77.5 222.5q0 143 68 230t194 105l182 25q41 6 76 16q29 8 46.5 35t17.5 64v31q0 80 -52.5 124t-148.5 44q-92 0 -142 -51.5t-58 -153.5v0h-140v0q14 180 103 266.5t259 86.5q155 0 241 -83.5t86 -232.5v-594q0 -35 12.5 -51.5t38.5 -16.5
q10 0 47 9v-131q-23 -10 -46 -16t-37 -6q-85 0 -120 53q-23 38 -33 116v0q-19 -30 -45 -58q-110 -118 -268 -118zM645 413v125v0q-52 -28 -118 -40l-116 -18q-107 -17 -151 -58.5t-44 -126.5q0 -80 42.5 -128t113.5 -48q115 0 194 75q60 56 74 131q2 12 3 36q2 25 2 52z" />
    <glyph glyph-name="b" unicode="b" 
d="M98 1470v0h74h74v0v-540v0l6 10q92 161 262 161q159 0 256.5 -157.5t97.5 -414.5q0 -233 -109 -395t-267 -162q-156 0 -244 136l-9 14v0v-122v0h-141v0v1470zM476 125q109 0 174.5 110t65.5 292q0 212 -58 312.5t-181 100.5q-114 0 -176 -118.5t-62 -337.5v0v0v0
q0 -163 65 -261t172 -98z" />
    <glyph glyph-name="c" unicode="c" horiz-adv-x="840" 
d="M801 379v0q-15 -195 -111.5 -301t-257.5 -106q-174 0 -277.5 150.5t-103.5 406.5q0 257 114 414.5t299 157.5q147 0 234.5 -103t102.5 -292v0h-144v0q-9 113 -62 174.5t-143 61.5q-110 0 -176.5 -113.5t-66.5 -301.5q0 -191 64 -297t179 -106q81 0 135.5 66.5t73.5 188.5
v0h140z" />
    <glyph glyph-name="d" unicode="d" 
d="M434 -28q-168 0 -271.5 163t-103.5 428q0 242 97.5 390t256.5 148q167 0 261 -158l16 -26v0v553v0h74h74v0v-1470v0h-69h-70v0v149v0l-19 -35q-89 -142 -246 -142zM450 938q-126 0 -183 -98.5t-57 -314.5q0 -182 65.5 -291.5t173.5 -109.5q109 0 175 104.5t66 278.5
q0 207 -62.5 319t-177.5 112z" />
    <glyph glyph-name="e" unicode="e" 
d="M467 -28q-183 0 -291 144.5t-108 389.5q0 279 112.5 437t309.5 158q177 0 276.5 -152t99.5 -420v-57v0h-645v0q6 -159 63 -247q64 -102 190 -102q92 0 153.5 54.5t84.5 154.5v0h146v0q-24 -172 -126 -266t-265 -94zM712 618v0q-10 150 -56 225q-59 98 -189 98
q-112 0 -180 -114q-49 -83 -65 -209v0h490z" />
    <glyph glyph-name="f" unicode="f" horiz-adv-x="467" 
d="M292 924v0v-924v0h-74h-74v0v924v0h-121v146h121v0v135q0 150 54 216t177 66q35 0 65 -5v-155q-20 4 -43 4q-56 0 -80.5 -29t-24.5 -97v-135v0h148v-146h-148z" />
    <glyph glyph-name="g" unicode="g" 
d="M457 -306q109 0 171 77.5t62 212.5v132l-1 -2q-87 -142 -240 -142q-171 0 -276 153.5t-105 403.5q0 257 97.5 414.5t255.5 157.5q167 0 261 -157l15 -25v0v151v0h141v-1029q0 -234 -101.5 -364.5t-283.5 -130.5q-158 0 -250 85t-104 242v0h148v0q13 -86 68 -132.5
t142 -46.5zM458 940q-122 0 -180 -100.5t-58 -312.5q0 -182 65 -292t172 -110q109 0 174.5 104.5t65.5 278.5q0 207 -62 319.5t-177 112.5z" />
    <glyph glyph-name="h" unicode="h" 
d="M109 0v1470v0h74h74v0v-553v0v0l25 42q92 142 250 142q136 0 214.5 -102.5t78.5 -278.5v-720v0h-74h-74v0v731q0 98 -46 154t-126 56q-116 0 -182 -98.5t-66 -270.5v0v-572v0h-74h-74v0z" />
    <glyph glyph-name="i" unicode="i" horiz-adv-x="373" 
d="M114 0v1070v0h74h74v0v-1070v0h-74h-74v0zM113 1470h150v-208h-150v208z" />
    <glyph glyph-name="j" unicode="j" horiz-adv-x="373" 
d="M111 1070v0h74h74v0v-1213q0 -157 -51 -221t-177 -64q-30 0 -57 5v155h35q64 0 83 23.5t19 101.5v0v1213zM110 1470h150v-208h-150v208z" />
    <glyph glyph-name="k" unicode="k" horiz-adv-x="840" 
d="M113 0v1470v0h74h74v0v-852v0l373 452v0h96h96v0l-344 -400v0l359 -670v0h-93h-94v0l-280 548v0l-113 -132v0v-416v0h-74h-74v0z" />
    <glyph glyph-name="l" unicode="l" horiz-adv-x="373" 
d="M113 0v1470v0h74h74v0v-1470v0h-74h-74v0z" />
    <glyph glyph-name="m" unicode="m" horiz-adv-x="1399" 
d="M109 0v1070v0h69h70v0v-157v0v0l24 41q93 147 241 147q121 0 192 -92q30 -40 48 -92v0l32 53q92 131 238 131q125 0 197.5 -94.5t72.5 -256.5v-750v0h-74h-74v0v726q0 100 -42.5 157.5t-117.5 57.5q-98 0 -154 -83t-56 -229v0v-629v0h-74h-74v0v767q0 81 -38 127.5
t-105 46.5q-106 0 -166.5 -98.5t-60.5 -270.5v0v-572v0h-74h-74v0z" />
    <glyph glyph-name="n" unicode="n" 
d="M109 0v1070v0h69h70v0v-171v0v0q16 33 34 60q92 142 250 142q136 0 214.5 -102.5t78.5 -278.5v-720v0h-74h-74v0v731q0 98 -46 154t-126 56q-116 0 -182 -98.5t-66 -270.5v0v-572v0h-74h-74v0z" />
    <glyph glyph-name="o" unicode="o" 
d="M467 -28q-183 0 -295.5 153.5t-112.5 403.5q0 257 112.5 414.5t295.5 157.5q184 0 296 -157.5t112 -414.5q0 -250 -112 -403.5t-296 -153.5v0zM467 128q117 0 187 110t70 293q0 188 -70 301t-187 113t-187 -113t-70 -301q0 -183 70 -293t187 -110v0z" />
    <glyph glyph-name="p" unicode="p" 
d="M98 1070v0h66h67v0v-171v0l21 41q92 161 262 161q159 0 256.5 -157.5t97.5 -414.5q0 -233 -109 -395t-267 -162q-156 0 -244 136l-2 3v-537v0h-74h-74v0v1496zM476 125q109 0 174.5 110t65.5 292q0 212 -58 312.5t-181 100.5q-114 0 -176 -118.5t-62 -337.5v0v0v0
q0 -163 65 -261t172 -98z" />
    <glyph glyph-name="q" unicode="q" 
d="M434 -28q-168 0 -271.5 163t-103.5 428q0 242 97.5 390t256.5 148q167 0 261 -158l15 -25v0v152v0h141v0v-1496v0h-74h-74v0v545v0l-3 -5q-89 -142 -245 -142zM449 938q-125 0 -182 -98.5t-57 -314.5q0 -182 65 -291.5t173 -109.5q109 0 175 104.5t66 278.5
q0 207 -62.5 319t-177.5 112z" />
    <glyph glyph-name="r" unicode="r" horiz-adv-x="559" 
d="M129 0v1070v0h69h70v0v-191v0v0q18 43 39 80q84 142 212 142q20 1 38 -3v-190l-32 3q-116 0 -182 -82.5t-66 -227.5v0v-601v0h-74h-74v0z" />
    <glyph glyph-name="s" unicode="s" horiz-adv-x="840" 
d="M606 760v0q1 89 -48.5 137t-141.5 48q-95 0 -142.5 -38.5t-47.5 -116.5q0 -64 43 -95t171 -59q193 -43 266 -112t73 -207q0 -159 -98 -252t-265 -93q-178 0 -269 92.5t-94 277.5v0h144v0q10 -114 63 -166.5t156 -52.5q109 0 163 43t54 130q0 70 -43 103q-42 33 -168 61
q-193 43 -267 112q-73 68 -73 207q0 148 90 235t244 87q152 0 244 -94q90 -92 90 -241v-6v0h-144z" />
    <glyph glyph-name="t" unicode="t" horiz-adv-x="467" 
d="M432 -1q-48 -15 -118 -16q-92 0 -132.5 57t-40.5 186v695v0h-118v149h118v0v300h148v-300v0h143v-149h-143v0v-695q0 -47 21 -67t70 -20q30 0 52 4v-144z" />
    <glyph glyph-name="u" unicode="u" 
d="M263 1070v-739q0 -96 45 -150.5t123 -54.5q113 0 177.5 99.5t64.5 274.5v0v570v0h74h74v0v-1070v0h-69h-70v0v179v0v0q-14 -34 -34 -65q-91 -142 -246 -142q-133 0 -210 90.5t-77 245.5v762v0h74h74v0z" />
    <glyph glyph-name="v" unicode="v" horiz-adv-x="840" 
d="M14 1070v0h86h86v0l231 -879v0v0l247 879v0h81h81v0l-331 -1070h-80h-80z" />
    <glyph glyph-name="w" unicode="w" horiz-adv-x="1212" 
d="M275 0l-252 1070v0h80h81v0l171 -850v0v0l168 850h82h82l174 -856v0v0l178 856v0h75h75v0l-248 -1070h-80h-80l-180 838v0v0l-174 -838h-76h-76z" />
    <glyph glyph-name="x" unicode="x" horiz-adv-x="840" 
d="M18 0l312 549v0l-296 521v0h94h95v0l203 -373v0v0l203 373v0h91h91v0l-301 -521v0l314 -549v0h-94h-95v0l-217 403v0v0l-213 -403v0h-93h-94v0z" />
    <glyph glyph-name="y" unicode="y" horiz-adv-x="840" 
d="M822 1070l-332 -1084q-81 -280 -135.5 -351t-187.5 -71q-38 -1 -70 14v167q39 -23 88 -23q57 0 86.5 47t74.5 200v0l-328 1101v0h83h84v0l236 -876v0v0l241 876v0h80h80v0z" />
    <glyph glyph-name="z" unicode="z" horiz-adv-x="840" 
d="M51 145l532 779v0h-493v0v73v73v0h686v-72v-73l-531 -779v0h544v0v-73v-73v0h-738v72v73z" />
    <glyph glyph-name="braceleft" unicode="{" horiz-adv-x="561" 
d="M489 -404q-171 0 -225.5 67.5t-54.5 277.5v250q0 126 -38 203.5t-101 77.5v130q63 0 101 77.5t38 203.5v250q0 210 54.5 277.5t225.5 67.5v-131q-96 0 -122 -37.5t-26 -176.5v-250q0 -188 -67 -278q-32 -45 -83 -67v0q51 -26 83 -69q67 -90 67 -278v-250
q0 -139 26 -176.5t122 -37.5v-131z" />
    <glyph glyph-name="bar" unicode="|" horiz-adv-x="436" 
d="M158 -512v2047h122v-2047h-122z" />
    <glyph glyph-name="braceright" unicode="}" horiz-adv-x="561" 
d="M70 -404v131q96 0 122 37.5t26 176.5v250q0 188 67 278q32 43 83 69v0q-51 22 -83 67q-67 90 -67 278v250q0 139 -26 176.5t-122 37.5v131q171 0 225.5 -67.5t54.5 -277.5v-250q0 -126 38 -203.5t101 -77.5v-130q-63 0 -101 -77.5t-38 -203.5v-250q0 -210 -55 -278
q-54 -67 -225 -67z" />
    <glyph glyph-name="asciitilde" unicode="~" horiz-adv-x="981" 
d="M102 485q41 90 91.5 132t119.5 42q41 0 89.5 -18t126.5 -63q57 -32 89.5 -45.5t54.5 -13.5q38 0 71.5 35t70.5 114l61 -115q-38 -83 -92.5 -130t-113.5 -47q-39 0 -85.5 19.5t-121.5 66.5q-46 29 -81.5 41t-76.5 12t-78.5 -38.5t-63.5 -106.5z" />
    <glyph glyph-name="uni00A0" unicode="&#xa0;" horiz-adv-x="467" 
 />
    <glyph glyph-name="exclamdown" unicode="&#xa1;" horiz-adv-x="559" 
d="M323 722l38 -620v-499h-80h-81v499l38 620h43v0h42zM363 865h-164v209h164v-209z" />
    <glyph glyph-name="cent" unicode="&#xa2;" 
d="M612 1275h79l-48 -205q63 -25 110 -73q95 -98 109 -277v0h-145v0q-8 104 -66 161q-20 20 -44 33l-181 -777q33 -8 71 -9q88 0 146.5 67t77.5 191v0h141v0q-15 -198 -114.5 -306t-267.5 -108q-47 0 -90 10l-51 -217h-79l57 244q-71 39 -124 113q-107 149 -107 403
q0 256 113.5 412.5t297.5 156.5q37 0 72 -5zM355 176l178 760l-36 2q-118 0 -189 -112.5t-71 -298.5v0q0 -189 69 -294q22 -34 50 -57h-1z" />
    <glyph glyph-name="sterling" unicode="&#xa3;" 
d="M905 69q-35 -45 -92 -76t-104 -31q-39 0 -79 11.5t-110 43.5q-60 27 -96 37t-73 10q-51 0 -114.5 -25t-105.5 -62l-76 133q95 58 153.5 162t58.5 215q0 72 -16 125l-14 41h-182v128h115q-32 65 -46 115q-18 65 -18 160q0 186 105.5 300.5t277.5 114.5q180 0 279.5 -122
t102.5 -346v0h-149v0q-2 148 -62 228.5t-167 80.5q-103 0 -166 -69t-63 -181q0 -73 13.5 -125t51.5 -124l17 -32h279v-128h-230q14 -62 14 -148q0 -130 -84 -253q-27 -40 -61 -75q96 32 172 33q25 0 54.5 -7.5t85.5 -27.5q58 -21 86 -28.5t47 -7.5q30 0 65.5 18.5t57.5 44.5
z" />
    <glyph glyph-name="currency" unicode="&#xa4;" 
d="M756 719q0 154 -84 260t-205 106t-204.5 -106t-83.5 -260t83.5 -260t204.5 -106t205 106t84 260zM467 211q-141 0 -251 101v0l-87 -109l-82 82l95 119v0q-86 134 -86 315q0 182 86 315v0l-95 119l82 82l87 -109v0q107 101 251 101q144 1 250 -103v0l88 111l82 -82
l-95 -119v0q88 -133 87 -315q1 -181 -87 -315v0l95 -119l-82 -82l-87 109v0q-107 -100 -251 -101z" />
    <glyph glyph-name="yen" unicode="&#xa5;" 
d="M74 667v115h260v0l-330 626v0h85h85v0l293 -610v0l294 610v0h83h84v0l-333 -626v0h264v-115h-319v0v-174v0h319v-115h-319v0v-378v0h-73h-74v0v378v0h-319v115h319v0v174v0h-319z" />
    <glyph glyph-name="brokenbar" unicode="&#xa6;" horiz-adv-x="436" 
d="M158 -342v683h122v-683h-122zM158 682v683h122v-683h-122z" />
    <glyph glyph-name="section" unicode="&#xa7;" 
d="M470 1508q140 0 219.5 -96.5t84.5 -273.5v0h-141v0q-3 103 -45.5 159t-117.5 56q-70 0 -113 -48t-43 -126q0 -59 58.5 -123.5t186.5 -148.5q169 -111 235 -198.5t66 -200.5q0 -172 -109 -278q-32 -31 -71 -54l22 -28q72 -100 72 -200q0 -151 -87 -243.5t-229 -92.5
q-146 0 -228 98t-88 279v0h141v0q3 -106 49 -164t126 -58q75 0 121.5 48t46.5 126q0 53 -60.5 123t-192.5 169q-188 141 -244.5 216t-56.5 183q0 163 109 264q33 30 73 52l-16 19q-72 96 -72 205q0 151 84 244q83 92 220 92zM712 475q0 74 -53.5 137.5t-191.5 154.5
q-75 49 -132 98q-25 -14 -47 -34q-68 -63 -68 -166q0 -71 44 -122.5t209 -175.5q73 -56 128 -107q23 15 43 35q68 68 68 180z" />
    <glyph glyph-name="dieresis" unicode="&#xa8;" horiz-adv-x="559" 
d="M68 1445h154v-207h-154v207zM341 1445h154v-207h-154v207z" />
    <glyph glyph-name="glyph106" horiz-adv-x="0" 
d="M-1 1509q270 0 456.5 -223.5t186.5 -547.5t-186.5 -547.5t-456.5 -223.5t-456 223.5t-186 547.5t186.5 547.5t455.5 223.5v0zM515 738q0 270 -149.5 456.5t-366.5 186.5t-366 -186.5t-149 -456.5t149.5 -456.5t365.5 -186.5t366 186.5t150 456.5v0z" />
    <glyph glyph-name="glyph107" horiz-adv-x="0" 
d="M330 592v0q-24 -157 -112.5 -242.5t-225.5 -85.5q-160 0 -254 126.5t-94 340.5q0 216 100 348t263 132q131 0 215 -83t108 -236v0h-114v0q-14 89 -68.5 137t-140.5 48q-109 0 -172.5 -92.5t-63.5 -251.5q0 -162 61 -248.5t175 -86.5q85 0 139.5 50.5t69.5 143.5v0h114z
" />
    <glyph glyph-name="copyright" unicode="&#xa9;" horiz-adv-x="1237" 
d="M620 1509q270 0 456.5 -223.5t186.5 -547.5t-186.5 -547.5t-456.5 -223.5t-456 223.5t-186 547.5t186.5 547.5t455.5 223.5v0zM1136 738q0 270 -149.5 456.5t-366.5 186.5t-366 -186.5t-149 -456.5t149.5 -456.5t365.5 -186.5t366 186.5t150 456.5v0zM963 592v0
q-24 -157 -112.5 -242.5t-225.5 -85.5q-160 0 -254 126.5t-94 340.5q0 216 100 348t263 132q131 0 215 -83t108 -236v0h-114v0q-14 89 -68.5 137t-140.5 48q-109 0 -172.5 -92.5t-63.5 -251.5q0 -162 61 -248.5t175 -86.5q85 0 139.5 50.5t69.5 143.5v0h114z" />
    <glyph glyph-name="ordfeminine" unicode="&#xaa;" horiz-adv-x="621" 
d="M227 831q-84 0 -135 51t-51 135q0 86 49 140.5t136 65.5l83 10l61 10q21 3 33.5 20t12.5 43v13q0 38 -31.5 59t-89.5 21q-63 0 -96.5 -27t-37.5 -80v0h-92v0q9 109 66 162t166 53q108 0 163.5 -47.5t55.5 -140.5v-342q0 -29 7 -39.5t25 -10.5q20 0 30 4v-89
q-13 -4 -28 -7t-27 -3q-61 0 -81 32q-13 22 -18 71v0q-10 -16 -25 -30q-72 -74 -176 -74zM416 1113v50v0q-38 -16 -90 -25l-69 -12q-58 -10 -84 -32t-26 -62q0 -46 25.5 -71t72.5 -25q72 0 121 44q27 25 40 54q5 10 7 32q3 22 3 47zM60 722h497v-97h-497v97z" />
    <glyph glyph-name="guillemotleft" unicode="&#xab;" 
d="M429 736l-175 -167v0l175 -170v-179l-265 257v91v91l265 253v-176zM770 736l-175 -167v0l175 -170v-179l-265 257v91v91l265 253v-176z" />
    <glyph glyph-name="logicalnot" unicode="&#xac;" horiz-adv-x="981" 
d="M794 649h-728v149h848v-576h-120v427z" />
    <glyph glyph-name="uni00AD" unicode="&#xad;" horiz-adv-x="559" 
d="M74 659h410v-185h-410v185z" />
    <glyph glyph-name="glyph113" horiz-adv-x="0" 
d="M-1 1509q270 0 456.5 -223.5t186.5 -547.5t-186.5 -547.5t-456.5 -223.5t-456 223.5t-186 547.5t186.5 547.5t455.5 223.5v0zM515 738q0 270 -149.5 456.5t-366.5 186.5t-366 -186.5t-149 -456.5t149.5 -456.5t365.5 -186.5t366 186.5t150 456.5v0z" />
    <glyph glyph-name="glyph114" horiz-adv-x="0" 
d="M-267 289v897v0h54v0h226q119 0 186 -66t67 -183q0 -124 -69 -192q-48 -46 -124 -62v0l214 -394v0h-63h-64v0l-193 389v0l-125 1v0v-390v0h-54h-55v0zM-158 795v0h139q88 0 130 34.5t42 106.5q0 67 -39.5 99t-122.5 32h-149v0v-272z" />
    <glyph glyph-name="registered" unicode="&#xae;" horiz-adv-x="1237" 
d="M620 1509q270 0 456.5 -223.5t186.5 -547.5t-186.5 -547.5t-456.5 -223.5t-456 223.5t-186 547.5t186.5 547.5t455.5 223.5v0zM1136 738q0 270 -149.5 456.5t-366.5 186.5t-366 -186.5t-149 -456.5t149.5 -456.5t365.5 -186.5t366 186.5t150 456.5v0zM343 289v897v0h54v0
h226q119 0 186 -66t67 -183q0 -124 -69 -192q-48 -46 -124 -62v0l214 -394v0h-63h-64v0l-193 389v0l-125 1v0v-390v0h-54h-55v0zM452 795v0h139q88 0 130 34.5t42 106.5q0 67 -39.5 99t-122.5 32h-149v0v-272z" />
    <glyph glyph-name="macron" unicode="&#xaf;" horiz-adv-x="559" 
d="M16 1283v117h527v-117h-527z" />
    <glyph glyph-name="degree" unicode="&#xb0;" horiz-adv-x="672" 
d="M336 1438q103 0 174.5 -86.5t71.5 -212.5q0 -125 -71.5 -211.5t-174.5 -86.5t-174.5 86.5t-71.5 211.5q0 126 71.5 212.5t174.5 86.5zM501 1139q0 88 -48 149t-117 61t-117 -61t-48 -149t48 -148.5t117 -60.5t117 60.5t48 148.5z" />
    <glyph glyph-name="plusminus" unicode="&#xb1;" horiz-adv-x="981" 
d="M429 560h-363v146h363v330h122v-330h363v-146h-363v-330h-122v330zM66 151h848v-147h-848v147z" />
    <glyph glyph-name="uni00B2" unicode="&#xb2;" horiz-adv-x="559" 
d="M543 1183q0 -100 -46.5 -167t-159.5 -131q-126 -72 -175 -142q-13 -19 -24 -44v0h405v-123h-537v0q0 140 65 234.5t225 185.5q72 41 101 83t29 105q0 62 -39 100t-102 38q-74 0 -115 -51.5t-42 -145.5v0h-101v0q2 149 72 230.5t196 81.5q112 0 180 -70t68 -184z" />
    <glyph glyph-name="uni00B3" unicode="&#xb3;" horiz-adv-x="559" 
d="M402 1196q0 60 -35 93t-100 33q-67 0 -104 -44t-38 -124v0h-101v0q2 136 69 209.5t188 73.5q109 0 173.5 -59.5t64.5 -160.5q0 -100 -66 -157q-15 -13 -33 -23v0q30 -12 55 -33q70 -58 70 -165q0 -132 -73 -209.5t-196 -77.5q-126 0 -196 73.5t-72 209.5v0h112v0
q1 -78 41.5 -120.5t112.5 -42.5q69 0 112 40.5t43 105.5q0 71 -41 110.5t-114 39.5h-57v106h39q74 0 110 31q36 30 36 91z" />
    <glyph glyph-name="acute" unicode="&#xb4;" horiz-adv-x="559" 
d="M205 1213l149 289h182l-219 -289h-112z" />
    <glyph glyph-name="uni00B5" unicode="&#xb5;" 
d="M263 1070v-721q0 -105 45 -165t123 -60q113 0 177.5 92.5t64.5 254.5v0v599h148v-1070h-133v160v0v0q-13 -29 -31 -54q-91 -134 -248 -134q-81 0 -129 48l-17 20v0v-468h-148v749v749h148z" />
    <glyph glyph-name="paragraph" unicode="&#xb6;" horiz-adv-x="901" 
d="M392 705v0q-157 1 -259 107.5t-102 274.5q0 169 101 276t260 107h443v0v-1822h-120v1702v0h-203v0v-1702h-120v1057z" />
    <glyph glyph-name="periodcentered" unicode="&#xb7;" horiz-adv-x="467" 
d="M129 843h174v-216h-174v216z" />
    <glyph glyph-name="cedilla" unicode="&#xb8;" horiz-adv-x="559" 
d="M320 0l-76 -125v0l51 6q65 0 103.5 -41.5t38.5 -111.5q0 -85 -54.5 -136.5t-144.5 -51.5q-35 0 -79.5 12t-82.5 32l29 82q30 -14 59 -22t49 -8q48 0 71.5 21.5t23.5 64.5q0 37 -21.5 58.5t-58.5 21.5q-7 0 -24.5 -4.5t-40.5 -11.5l-29 37l108 177h78z" />
    <glyph glyph-name="uni00B9" unicode="&#xb9;" horiz-adv-x="559" 
d="M253 576v604v0h-181v93q99 -1 144 33t69 131h88v0v-861v0h-60h-60v0z" />
    <glyph glyph-name="ordmasculine" unicode="&#xba;" horiz-adv-x="612" 
d="M307 831q-127 0 -196.5 86.5t-69.5 246.5q0 164 69.5 253.5t196.5 89.5t196.5 -89.5t69.5 -253.5q0 -160 -69.5 -246.5t-196.5 -86.5v0zM307 936q75 0 113.5 58.5t38.5 171.5q0 116 -38.5 176t-113.5 60t-113.5 -60t-38.5 -176q0 -113 38.5 -171.5t113.5 -58.5v0zM60 719
h494v-94h-494v94z" />
    <glyph glyph-name="guillemotright" unicode="&#xbb;" 
d="M164 399l175 167v0l-175 170v179l265 -257v-91v-91l-265 -253v176zM505 399l175 167v0l-175 170v179l265 -257v-91v-91l-265 -253v176z" />
    <glyph glyph-name="uni2215" unicode="&#x2215;" horiz-adv-x="281" 
d="M559 1441l-742 -1485h-95l742 1485h95z" />
    <glyph glyph-name="glyph130" horiz-adv-x="559" 
d="M253 576v604v0h-181v93q99 -1 144 33t69 131h88v0v-861v0h-60h-60v0z" />
    <glyph glyph-name="glyph131" horiz-adv-x="559" 
d="M329 742h-309v75v76l316 515h54h54v-550v0h87v-116h-87v0v-166h-115v166v0zM329 858v0v359v0v0l-194 -324l-21 -35v0h215z" />
    <glyph glyph-name="onequarter" unicode="&#xbc;" horiz-adv-x="1401" 
d="M1096 1441l-742 -1485h-95l742 1485h95zM304 576v604v0h-181v93q99 -1 144 33t69 131h88v0v-861v0h-60h-60v0zM1068 166h-309v75v76l316 515h54h54v-550v0h87v-116h-87v0v-166h-115v166v0zM1068 282v0v359v0v0l-194 -324l-21 -35v0h215z" />
    <glyph glyph-name="glyph133" horiz-adv-x="559" 
d="M253 576v604v0h-181v93q99 -1 144 33t69 131h88v0v-861v0h-60h-60v0z" />
    <glyph glyph-name="glyph134" horiz-adv-x="559" 
d="M543 1183q0 -100 -46.5 -167t-159.5 -131q-126 -72 -175 -142q-13 -19 -24 -44v0h405v-123h-537v0q0 140 65 234.5t225 185.5q72 41 101 83t29 105q0 62 -39 100t-102 38q-74 0 -115 -51.5t-42 -145.5v0h-101v0q2 149 72 230.5t196 81.5q112 0 180 -70t68 -184z" />
    <glyph glyph-name="onehalf" unicode="&#xbd;" horiz-adv-x="1401" 
d="M1034 1441l-742 -1485h-95l742 1485h95zM253 576v604v0h-181v93q99 -1 144 33t69 131h88v0v-861v0h-60h-60v0zM1299 607q0 -100 -46.5 -167t-159.5 -131q-126 -72 -175 -142q-13 -19 -24 -44v0h405v-123h-537v0q0 140 65 234.5t225 185.5q72 41 101 83t29 105
q0 62 -39 100t-102 38q-74 0 -115 -51.5t-42 -145.5v0h-101v0q2 149 72 230.5t196 81.5q112 0 180 -70t68 -184z" />
    <glyph glyph-name="glyph136" horiz-adv-x="559" 
d="M402 1196q0 60 -35 93t-100 33q-67 0 -104 -44t-38 -124v0h-101v0q2 136 69 209.5t188 73.5q109 0 173.5 -59.5t64.5 -160.5q0 -100 -66 -157q-15 -13 -33 -23v0q30 -12 55 -33q70 -58 70 -165q0 -132 -73 -209.5t-196 -77.5q-126 0 -196 73.5t-72 209.5v0h112v0
q1 -78 41.5 -120.5t112.5 -42.5q69 0 112 40.5t43 105.5q0 71 -41 110.5t-114 39.5h-57v106h39q74 0 110 31q36 30 36 91z" />
    <glyph glyph-name="glyph137" horiz-adv-x="559" 
d="M329 742h-309v75v76l316 515h54h54v-550v0h87v-116h-87v0v-166h-115v166v0zM329 858v0v359v0v0l-194 -324l-21 -35v0h215z" />
    <glyph glyph-name="threequarters" unicode="&#xbe;" horiz-adv-x="1401" 
d="M1195 1441l-742 -1485h-95l742 1485h95zM470 1196q0 60 -35 93t-100 33q-67 0 -104 -44t-38 -124v0h-101v0q2 136 69 209.5t188 73.5q109 0 173.5 -59.5t64.5 -160.5q0 -100 -66 -157q-15 -13 -33 -23v0q30 -12 55 -33q70 -58 70 -165q0 -132 -73 -209.5t-196 -77.5
q-126 0 -196 73.5t-72 209.5v0h112v0q1 -78 41.5 -120.5t112.5 -42.5q69 0 112 40.5t43 105.5q0 71 -41 110.5t-114 39.5h-57v106h39q74 0 110 31q36 30 36 91zM1158 166h-309v75v76l316 515h54h54v-550v0h87v-116h-87v0v-166h-115v166v0zM1158 282v0v359v0v0l-194 -324
l-21 -35v0h215z" />
    <glyph glyph-name="questiondown" unicode="&#xbf;" horiz-adv-x="1026" 
d="M505 -254q121 0 176 74t58 241v0h146v0q-3 -232 -100.5 -353t-279.5 -121q-158 0 -254.5 109t-96.5 286q0 102 39 186t137 191q70 77 95 150.5t22 189.5h146q4 -144 -30.5 -241.5t-124.5 -196.5q-73 -80 -100.5 -140t-27.5 -139q0 -109 53 -173q52 -63 142 -63zM602 873
h-164v207h164v-207z" />
    <glyph glyph-name="glyph140" horiz-adv-x="0" 
d="M20 0l-219 289h182l149 -289h-112z" />
    <glyph glyph-name="Agrave" unicode="&#xc0;" horiz-adv-x="1120" 
d="M23 0l454 1470h93h93l434 -1470v0h-91h-92v0l-117 428v0h-470v0l-118 -428v0h-93h-93v0zM566 1278l-188 -673v0h373v0l-185 673v0v0zM590 1583l-219 289h182l149 -289h-112z" />
    <glyph glyph-name="glyph142" horiz-adv-x="0" 
d="M-132 0l149 289h182l-219 -289h-112z" />
    <glyph glyph-name="Aacute" unicode="&#xc1;" horiz-adv-x="1120" 
d="M23 0l454 1470h93h93l434 -1470v0h-91h-92v0l-117 428v0h-470v0l-118 -428v0h-93h-93v0zM566 1278l-188 -673v0h373v0l-185 673v0v0zM438 1583l149 289h182l-219 -289h-112z" />
    <glyph glyph-name="glyph144" horiz-adv-x="0" 
d="M78 289l166 -289h-133l-111 192v0l-111 -192h-133l166 289h78h78z" />
    <glyph glyph-name="Acircumflex" unicode="&#xc2;" horiz-adv-x="1120" 
d="M23 0l454 1470h93h93l434 -1470v0h-91h-92v0l-117 428v0h-470v0l-118 -428v0h-93h-93v0zM566 1278l-188 -673v0h373v0l-185 673v0v0zM648 1872l166 -289h-133l-111 192v0l-111 -192h-133l166 289h78h78z" />
    <glyph glyph-name="glyph146" horiz-adv-x="0" 
d="M-285 28q14 113 56 165t118 52q36 0 69 -10.5t79 -36.5q27 -16 45.5 -22t37.5 -6q37 0 57 22t28 71h80q-11 -104 -55.5 -162.5t-112.5 -58.5q-24 0 -56 10t-88 34q-42 18 -64.5 25t-36.5 7q-27 0 -47.5 -24t-29.5 -66h-80z" />
    <glyph glyph-name="Atilde" unicode="&#xc3;" horiz-adv-x="1120" 
d="M23 0l454 1470h93h93l434 -1470v0h-91h-92v0l-117 428v0h-470v0l-118 -428v0h-93h-93v0zM566 1278l-188 -673v0h373v0l-185 673v0v0zM285 1611q14 113 56 165t118 52q36 0 69 -10.5t79 -36.5q27 -16 45.5 -22t37.5 -6q37 0 57 22t28 71h80q-11 -104 -55.5 -162.5
t-112.5 -58.5q-24 0 -56 10t-88 34q-42 18 -64.5 25t-36.5 7q-27 0 -47.5 -24t-29.5 -66h-80z" />
    <glyph glyph-name="glyph148" horiz-adv-x="0" 
d="M-213 232h154v-207h-154v207zM60 232h154v-207h-154v207z" />
    <glyph glyph-name="Adieresis" unicode="&#xc4;" horiz-adv-x="1120" 
d="M23 0l454 1470h93h93l434 -1470v0h-91h-92v0l-117 428v0h-470v0l-118 -428v0h-93h-93v0zM566 1278l-188 -673v0h373v0l-185 673v0v0zM357 1815h154v-207h-154v207zM630 1815h154v-207h-154v207z" />
    <glyph glyph-name="glyph150" horiz-adv-x="0" 
d="M0 -41q-65 0 -109.5 54.5t-44.5 133.5t44.5 133.5t109.5 54.5t110 -54.5t45 -133.5t-45 -133.5t-110 -54.5v0zM0 33q34 0 57.5 33t23.5 81t-23.5 81t-57.5 33t-57 -33t-23 -81t23 -81t57 -33v0z" />
    <glyph glyph-name="Aring" unicode="&#xc5;" horiz-adv-x="1120" 
d="M23 0l454 1470h93h93l434 -1470v0h-91h-92v0l-117 428v0h-470v0l-118 -428v0h-93h-93v0zM566 1278l-188 -673v0h373v0l-185 673v0v0zM570 1542q-65 0 -109.5 54.5t-44.5 133.5t44.5 133.5t109.5 54.5t110 -54.5t45 -133.5t-45 -133.5t-110 -54.5v0zM570 1616
q34 0 57.5 33t23.5 81t-23.5 81t-57.5 33t-57 -33t-23 -81t23 -81t57 -33v0z" />
    <glyph glyph-name="AE" unicode="&#xc6;" horiz-adv-x="1679" 
d="M771 0v0v428v0h-447v0l-137 -428v0h-86h-87v0l492 1470v0h427v0h664v0v-87v-88v0h-664v0v-450v0h581v-88v-89v0h-581v0v-493v0h664v0v-87v-88v0h-664v0h-162zM609 1295l-225 -690v0h387v0v690h-162v0z" />
    <glyph glyph-name="glyph153" horiz-adv-x="0" 
d="M39 0l-76 -125v0l51 6q65 0 103.5 -41.5t38.5 -111.5q0 -85 -54.5 -136.5t-144.5 -51.5q-35 0 -79.5 12t-82.5 32l29 82q30 -14 59 -22t49 -8q48 0 71.5 21.5t23.5 64.5q0 37 -21.5 58.5t-58.5 21.5q-7 0 -24.5 -4.5t-40.5 -11.5l-29 37l108 177h78z" />
    <glyph glyph-name="Ccedilla" unicode="&#xc7;" horiz-adv-x="1212" 
d="M1142 544v0q-22 -279 -158.5 -430.5t-366.5 -151.5q-249 0 -396 210.5t-147 567.5q0 345 156 556.5t410 211.5q206 0 334 -125t157 -354v0h-159v0q-18 145 -104.5 223.5t-227.5 78.5q-184 0 -291 -162t-107 -442q0 -284 103 -436t295 -152q149 0 238.5 105.5t104.5 299.5
v0h159zM656 0l-76 -125v0l51 6q65 0 103.5 -41.5t38.5 -111.5q0 -85 -54.5 -136.5t-144.5 -51.5q-35 0 -79.5 12t-82.5 32l29 82q30 -14 59 -22t49 -8q48 0 71.5 21.5t23.5 64.5q0 37 -21.5 58.5t-58.5 21.5q-7 0 -24.5 -4.5t-40.5 -11.5l-29 37l108 177h78z" />
    <glyph glyph-name="Egrave" unicode="&#xc8;" horiz-adv-x="1120" 
d="M145 0v0v1470v0h880v0v-87v-88v0h-718v0v-450v0h664v-88v-89v0h-664v0v-493v0h727v0v-87v-88v0h-889zM632 1583l-219 289h182l149 -289h-112z" />
    <glyph glyph-name="Eacute" unicode="&#xc9;" horiz-adv-x="1120" 
d="M145 0v0v1470v0h880v0v-87v-88v0h-718v0v-450v0h664v-88v-89v0h-664v0v-493v0h727v0v-87v-88v0h-889zM480 1583l149 289h182l-219 -289h-112z" />
    <glyph glyph-name="Ecircumflex" unicode="&#xca;" horiz-adv-x="1120" 
d="M145 0v0v1470v0h880v0v-87v-88v0h-718v0v-450v0h664v-88v-89v0h-664v0v-493v0h727v0v-87v-88v0h-889zM690 1872l166 -289h-133l-111 192v0l-111 -192h-133l166 289h78h78z" />
    <glyph glyph-name="Edieresis" unicode="&#xcb;" horiz-adv-x="1120" 
d="M145 0v0v1470v0h880v0v-87v-88v0h-718v0v-450v0h664v-88v-89v0h-664v0v-493v0h727v0v-87v-88v0h-889zM421 1815h154v-207h-154v207zM694 1815h154v-207h-154v207z" />
    <glyph glyph-name="Igrave" unicode="&#xcc;" horiz-adv-x="467" 
d="M125 0v1470v0h81h81v0v-1470v0h-81h-81v0zM197 1583l-219 289h182l149 -289h-112z" />
    <glyph glyph-name="Iacute" unicode="&#xcd;" horiz-adv-x="467" 
d="M154 0v1470v0h81h81v0v-1470v0h-81h-81v0zM154 1583l149 289h182l-219 -289h-112z" />
    <glyph glyph-name="Icircumflex" unicode="&#xce;" horiz-adv-x="467" 
d="M154 0v1470v0h81h81v0v-1470v0h-81h-81v0zM313 1872l166 -289h-133l-111 192v0l-111 -192h-133l166 289h78h78z" />
    <glyph glyph-name="Idieresis" unicode="&#xcf;" horiz-adv-x="467" 
d="M155 0v1470v0h81h81v0v-1470v0h-81h-81v0zM23 1815h154v-207h-154v207zM296 1815h154v-207h-154v207z" />
    <glyph glyph-name="Eth" unicode="&#xd0;" horiz-adv-x="1212" 
d="M136 0v0v669v0h-136v173h136v0v628v0h81v0h380q257 0 396 -186.5t139 -529.5q0 -361 -137.5 -557.5t-390.5 -196.5h-387v0h-81zM298 1301v0v-459v0h320v-173h-320v0v-501v0h306q178 0 269 144.5t91 425.5q0 278 -92.5 420.5t-274.5 142.5h-299z" />
    <glyph glyph-name="Ntilde" unicode="&#xd1;" horiz-adv-x="1212" 
d="M286 0v0h-79h-80v0v1470v0h97h97v0l605 -1195v0v0v1195v0h79h80v0v-1470h-87h-88l-624 1188v0v0v-1188zM321 1633q14 113 56 165t118 52q36 0 69 -10.5t79 -36.5q27 -16 45.5 -22t37.5 -6q37 0 57 22t28 71h80q-11 -104 -55.5 -162.5t-112.5 -58.5q-24 0 -56 10t-88 34
q-42 18 -64.5 25t-36.5 7q-27 0 -47.5 -24t-29.5 -66h-80z" />
    <glyph glyph-name="Ograve" unicode="&#xd2;" horiz-adv-x="1307" 
d="M653 -38q-263 0 -425 210t-162 553q0 359 159 571t428 212q270 0 429 -212t159 -571q0 -343 -162 -553t-426 -210v0zM653 139q191 0 305.5 160.5t114.5 427.5q0 280 -112.5 442t-307.5 162q-194 0 -306.5 -162t-112.5 -442q0 -267 114.5 -427.5t304.5 -160.5v0zM673 1583
l-219 289h182l149 -289h-112z" />
    <glyph glyph-name="Oacute" unicode="&#xd3;" horiz-adv-x="1307" 
d="M653 -38q-263 0 -425 210t-162 553q0 359 159 571t428 212q270 0 429 -212t159 -571q0 -343 -162 -553t-426 -210v0zM653 139q191 0 305.5 160.5t114.5 427.5q0 280 -112.5 442t-307.5 162q-194 0 -306.5 -162t-112.5 -442q0 -267 114.5 -427.5t304.5 -160.5v0zM521 1583
l149 289h182l-219 -289h-112z" />
    <glyph glyph-name="Ocircumflex" unicode="&#xd4;" horiz-adv-x="1307" 
d="M653 -38q-263 0 -425 210t-162 553q0 359 159 571t428 212q270 0 429 -212t159 -571q0 -343 -162 -553t-426 -210v0zM653 139q191 0 305.5 160.5t114.5 427.5q0 280 -112.5 442t-307.5 162q-194 0 -306.5 -162t-112.5 -442q0 -267 114.5 -427.5t304.5 -160.5v0zM731 1872
l166 -289h-133l-111 192v0l-111 -192h-133l166 289h78h78z" />
    <glyph glyph-name="Otilde" unicode="&#xd5;" horiz-adv-x="1307" 
d="M653 -38q-263 0 -425 210t-162 553q0 359 159 571t428 212q270 0 429 -212t159 -571q0 -343 -162 -553t-426 -210v0zM653 139q191 0 305.5 160.5t114.5 427.5q0 280 -112.5 442t-307.5 162q-194 0 -306.5 -162t-112.5 -442q0 -267 114.5 -427.5t304.5 -160.5v0zM368 1611
q14 113 56 165t118 52q36 0 69 -10.5t79 -36.5q27 -16 45.5 -22t37.5 -6q37 0 57 22t28 71h80q-11 -104 -55.5 -162.5t-112.5 -58.5q-24 0 -56 10t-88 34q-42 18 -64.5 25t-36.5 7q-27 0 -47.5 -24t-29.5 -66h-80z" />
    <glyph glyph-name="Odieresis" unicode="&#xd6;" horiz-adv-x="1307" 
d="M653 -38q-263 0 -425 210t-162 553q0 359 159 571t428 212q270 0 429 -212t159 -571q0 -343 -162 -553t-426 -210v0zM653 139q191 0 305.5 160.5t114.5 427.5q0 280 -112.5 442t-307.5 162q-194 0 -306.5 -162t-112.5 -442q0 -267 114.5 -427.5t304.5 -160.5v0zM440 1815
h154v-207h-154v207zM713 1815h154v-207h-154v207z" />
    <glyph glyph-name="multiply" unicode="&#xd7;" horiz-adv-x="981" 
d="M489 412l-320 -320l-103 103l320 320l-320 320l103 103l320 -320l320 320l103 -103l-320 -320l320 -320l-103 -103z" />
    <glyph glyph-name="Oslash" unicode="&#xd8;" horiz-adv-x="1307" 
d="M655 671l-294 -392q111 -139 294 -140v0q195 0 307.5 157.5t112.5 430.5q1 239 -84 393zM655 -38q-242 0 -399 177l-137 -183l-53 57l141 189q-138 204 -139 523q0 352 162 567.5t425 215.5q242 1 396 -181l140 187l53 -57l-143 -191q142 -211 142 -541q0 -343 -162 -553
t-426 -210v0zM655 1331q-194 0 -306.5 -162t-112.5 -442q0 -230 80 -381l339 453l293 391q-110 140 -293 141z" />
    <glyph glyph-name="Ugrave" unicode="&#xd9;" horiz-adv-x="1212" 
d="M1081 602q1 -339 -110.5 -489.5t-363.5 -150.5q-251 0 -362 150.5t-112 489.5v868v0h81h81v0v-876q0 -241 75 -347.5t245 -106.5t245 106.5t75 347.5v876v0h73h73v0v-868zM635 1583l-219 289h182l149 -289h-112z" />
    <glyph glyph-name="Uacute" unicode="&#xda;" horiz-adv-x="1212" 
d="M1081 602q1 -339 -110.5 -489.5t-363.5 -150.5q-251 0 -362 150.5t-112 489.5v868v0h81h81v0v-876q0 -241 75 -347.5t245 -106.5t245 106.5t75 347.5v876v0h73h73v0v-868zM483 1583l149 289h182l-219 -289h-112z" />
    <glyph glyph-name="Ucircumflex" unicode="&#xdb;" horiz-adv-x="1212" 
d="M1081 602q1 -339 -110.5 -489.5t-363.5 -150.5q-251 0 -362 150.5t-112 489.5v868v0h81h81v0v-876q0 -241 75 -347.5t245 -106.5t245 106.5t75 347.5v876v0h73h73v0v-868zM693 1872l166 -289h-133l-111 192v0l-111 -192h-133l166 289h78h78z" />
    <glyph glyph-name="Udieresis" unicode="&#xdc;" horiz-adv-x="1212" 
d="M1081 602q1 -339 -110.5 -489.5t-363.5 -150.5q-251 0 -362 150.5t-112 489.5v868v0h81h81v0v-876q0 -241 75 -347.5t245 -106.5t245 106.5t75 347.5v876v0h73h73v0v-868zM402 1815h154v-207h-154v207zM675 1815h154v-207h-154v207z" />
    <glyph glyph-name="Yacute" unicode="&#xdd;" horiz-adv-x="1120" 
d="M478 593v0l-455 877v0h95h95v0l347 -697v0l341 697v0h97h97v0l-455 -873v0v-597h-81h-81v593zM471 1583l149 289h182l-219 -289h-112z" />
    <glyph glyph-name="Thorn" unicode="&#xde;" horiz-adv-x="1120" 
d="M145 0v1470v0h81h81v0v-244v0l381 1q160 0 258 -119t98 -313q0 -189 -103 -304.5t-270 -115.5l-364 1v0v-376v0h-81h-81v0zM876 797q0 128 -59.5 193.5t-174.5 65.5h-335v0v-510v0h318q124 0 188 64q63 63 63 187z" />
    <glyph glyph-name="germandbls" unicode="&#xdf;" horiz-adv-x="1026" 
d="M261 1060v-1060v0h-74h-74v0v1060v0q0 202 104.5 314.5t291.5 112.5q179 0 289 -100.5t110 -264.5q0 -176 -127 -294l-6 -6q30 -16 54 -36q129 -105 129 -299q0 -252 -108.5 -383.5t-316.5 -131.5q-17 0 -39.5 3t-47.5 9v0v153v0q19 -4 39.5 -6.5t39.5 -2.5q138 0 210 79
t72 231q0 154 -83 226q-44 37 -113 55q-32 8 -75 9t-73 -6v158q33 -7 74.5 -5.5t68.5 10.5q47 16 79 42q72 59 72 182q0 102 -69 165t-182 63q-117 0 -181 -73q-64 -72 -64 -204z" />
    <glyph glyph-name="glyph179" horiz-adv-x="0" 
d="M20 0l-219 289h182l149 -289h-112z" />
    <glyph glyph-name="agrave" unicode="&#xe0;" 
d="M342 -28q-126 0 -203.5 84.5t-77.5 222.5q0 143 68 230t194 105l182 25q41 6 76 16q29 8 46.5 35t17.5 64v31q0 80 -52.5 124t-148.5 44q-92 0 -142 -51.5t-58 -153.5v0h-140v0q14 180 103 266.5t259 86.5q155 0 241 -83.5t86 -232.5v-594q0 -35 12.5 -51.5t38.5 -16.5
q10 0 47 9v-131q-23 -10 -46 -16t-37 -6q-85 0 -120 53q-23 38 -33 116v0q-19 -30 -45 -58q-110 -118 -268 -118zM645 413v125v0q-52 -28 -118 -40l-116 -18q-107 -17 -151 -58.5t-44 -126.5q0 -80 42.5 -128t113.5 -48q115 0 194 75q60 56 74 131q2 12 3 36q2 25 2 52z
M469 1213l-219 289h182l149 -289h-112z" />
    <glyph glyph-name="glyph181" horiz-adv-x="0" 
d="M-132 0l149 289h182l-219 -289h-112z" />
    <glyph glyph-name="aacute" unicode="&#xe1;" 
d="M342 -28q-126 0 -203.5 84.5t-77.5 222.5q0 143 68 230t194 105l182 25q41 6 76 16q29 8 46.5 35t17.5 64v31q0 80 -52.5 124t-148.5 44q-92 0 -142 -51.5t-58 -153.5v0h-140v0q14 180 103 266.5t259 86.5q155 0 241 -83.5t86 -232.5v-594q0 -35 12.5 -51.5t38.5 -16.5
q10 0 47 9v-131q-23 -10 -46 -16t-37 -6q-85 0 -120 53q-23 38 -33 116v0q-19 -30 -45 -58q-110 -118 -268 -118zM645 413v125v0q-52 -28 -118 -40l-116 -18q-107 -17 -151 -58.5t-44 -126.5q0 -80 42.5 -128t113.5 -48q115 0 194 75q60 56 74 131q2 12 3 36q2 25 2 52z
M317 1213l149 289h182l-219 -289h-112z" />
    <glyph glyph-name="glyph183" horiz-adv-x="0" 
d="M78 289l166 -289h-133l-111 192v0l-111 -192h-133l166 289h78h78z" />
    <glyph glyph-name="acircumflex" unicode="&#xe2;" 
d="M342 -28q-126 0 -203.5 84.5t-77.5 222.5q0 143 68 230t194 105l182 25q41 6 76 16q29 8 46.5 35t17.5 64v31q0 80 -52.5 124t-148.5 44q-92 0 -142 -51.5t-58 -153.5v0h-140v0q14 180 103 266.5t259 86.5q155 0 241 -83.5t86 -232.5v-594q0 -35 12.5 -51.5t38.5 -16.5
q10 0 47 9v-131q-23 -10 -46 -16t-37 -6q-85 0 -120 53q-23 38 -33 116v0q-19 -30 -45 -58q-110 -118 -268 -118zM645 413v125v0q-52 -28 -118 -40l-116 -18q-107 -17 -151 -58.5t-44 -126.5q0 -80 42.5 -128t113.5 -48q115 0 194 75q60 56 74 131q2 12 3 36q2 25 2 52z
M527 1502l166 -289h-133l-111 192v0l-111 -192h-133l166 289h78h78z" />
    <glyph glyph-name="glyph185" horiz-adv-x="0" 
d="M-285 28q14 113 56 165t118 52q36 0 69 -10.5t79 -36.5q27 -16 45.5 -22t37.5 -6q37 0 57 22t28 71h80q-11 -104 -55.5 -162.5t-112.5 -58.5q-24 0 -56 10t-88 34q-42 18 -64.5 25t-36.5 7q-27 0 -47.5 -24t-29.5 -66h-80z" />
    <glyph glyph-name="atilde" unicode="&#xe3;" 
d="M342 -28q-126 0 -203.5 84.5t-77.5 222.5q0 143 68 230t194 105l182 25q41 6 76 16q29 8 46.5 35t17.5 64v31q0 80 -52.5 124t-148.5 44q-92 0 -142 -51.5t-58 -153.5v0h-140v0q14 180 103 266.5t259 86.5q155 0 241 -83.5t86 -232.5v-594q0 -35 12.5 -51.5t38.5 -16.5
q10 0 47 9v-131q-23 -10 -46 -16t-37 -6q-85 0 -120 53q-23 38 -33 116v0q-19 -30 -45 -58q-110 -118 -268 -118zM645 413v125v0q-52 -28 -118 -40l-116 -18q-107 -17 -151 -58.5t-44 -126.5q0 -80 42.5 -128t113.5 -48q115 0 194 75q60 56 74 131q2 12 3 36q2 25 2 52z
M164 1241q14 113 56 165t118 52q36 0 69 -10.5t79 -36.5q27 -16 45.5 -22t37.5 -6q37 0 57 22t28 71h80q-11 -104 -55.5 -162.5t-112.5 -58.5q-24 0 -56 10t-88 34q-42 18 -64.5 25t-36.5 7q-27 0 -47.5 -24t-29.5 -66h-80z" />
    <glyph glyph-name="glyph187" horiz-adv-x="0" 
d="M-213 232h154v-207h-154v207zM60 232h154v-207h-154v207z" />
    <glyph glyph-name="adieresis" unicode="&#xe4;" 
d="M342 -28q-126 0 -203.5 84.5t-77.5 222.5q0 143 68 230t194 105l182 25q41 6 76 16q29 8 46.5 35t17.5 64v31q0 80 -52.5 124t-148.5 44q-92 0 -142 -51.5t-58 -153.5v0h-140v0q14 180 103 266.5t259 86.5q155 0 241 -83.5t86 -232.5v-594q0 -35 12.5 -51.5t38.5 -16.5
q10 0 47 9v-131q-23 -10 -46 -16t-37 -6q-85 0 -120 53q-23 38 -33 116v0q-19 -30 -45 -58q-110 -118 -268 -118zM645 413v125v0q-52 -28 -118 -40l-116 -18q-107 -17 -151 -58.5t-44 -126.5q0 -80 42.5 -128t113.5 -48q115 0 194 75q60 56 74 131q2 12 3 36q2 25 2 52z
M236 1445h154v-207h-154v207zM509 1445h154v-207h-154v207z" />
    <glyph glyph-name="glyph189" horiz-adv-x="0" 
d="M0 -41q-65 0 -109.5 54.5t-44.5 133.5t44.5 133.5t109.5 54.5t110 -54.5t45 -133.5t-45 -133.5t-110 -54.5v0zM0 33q34 0 57.5 33t23.5 81t-23.5 81t-57.5 33t-57 -33t-23 -81t23 -81t57 -33v0z" />
    <glyph glyph-name="aring" unicode="&#xe5;" 
d="M342 -28q-126 0 -203.5 84.5t-77.5 222.5q0 143 68 230t194 105l182 25q41 6 76 16q29 8 46.5 35t17.5 64v31q0 80 -52.5 124t-148.5 44q-92 0 -142 -51.5t-58 -153.5v0h-140v0q14 180 103 266.5t259 86.5q155 0 241 -83.5t86 -232.5v-594q0 -35 12.5 -51.5t38.5 -16.5
q10 0 47 9v-131q-23 -10 -46 -16t-37 -6q-85 0 -120 53q-23 38 -33 116v0q-19 -30 -45 -58q-110 -118 -268 -118zM645 413v125v0q-52 -28 -118 -40l-116 -18q-107 -17 -151 -58.5t-44 -126.5q0 -80 42.5 -128t113.5 -48q115 0 194 75q60 56 74 131q2 12 3 36q2 25 2 52z
M449 1172q-65 0 -109.5 54.5t-44.5 133.5t44.5 133.5t109.5 54.5t110 -54.5t45 -133.5t-45 -133.5t-110 -54.5v0zM449 1246q34 0 57.5 33t23.5 81t-23.5 81t-57.5 33t-57 -33t-23 -81t23 -81t57 -33v0z" />
    <glyph glyph-name="ae" unicode="&#xe6;" horiz-adv-x="1493" 
d="M458 1101q151 0 236 -84q35 -33 54 -78v0l3 4q110 158 304 158q173 0 270.5 -152t97.5 -420v-57v0h-642v0q7 -159 62 -247q64 -102 189 -102q91 0 152.5 54.5t84.5 154.5v0h146v0q-24 -172 -124 -266t-259 -94q-179 0 -285 145q-25 33 -43 72v0q-27 -53 -71 -99
q-113 -118 -277 -118q-132 0 -213.5 84.5t-81.5 222.5q0 144 66.5 231.5t189.5 104.5l178 25q52 8 95 23q25 9 40 33t15 57v32q0 80 -52.5 124t-148.5 44q-92 0 -142 -51.5t-58 -153.5v0h-140v0q14 180 101 266.5t253 86.5zM645 408v138v0q-56 -35 -128 -47l-111 -17
q-105 -17 -147.5 -59t-42.5 -128q0 -80 43 -128t114 -48q114 0 193 75q60 58 75 135q2 9 3 31t1 48zM1269 618v0q-10 150 -56 225q-59 98 -188 98q-112 0 -179 -114q-50 -83 -62 -209v0h485z" />
    <glyph glyph-name="glyph192" horiz-adv-x="0" 
d="M39 0l-76 -125v0l51 6q65 0 103.5 -41.5t38.5 -111.5q0 -85 -54.5 -136.5t-144.5 -51.5q-35 0 -79.5 12t-82.5 32l29 82q30 -14 59 -22t49 -8q48 0 71.5 21.5t23.5 64.5q0 37 -21.5 58.5t-58.5 21.5q-7 0 -24.5 -4.5t-40.5 -11.5l-29 37l108 177h78z" />
    <glyph glyph-name="ccedilla" unicode="&#xe7;" horiz-adv-x="840" 
d="M801 379v0q-15 -195 -111.5 -301t-257.5 -106q-174 0 -277.5 150.5t-103.5 406.5q0 257 114 414.5t299 157.5q147 0 234.5 -103t102.5 -292v0h-144v0q-9 113 -62 174.5t-143 61.5q-110 0 -176.5 -113.5t-66.5 -301.5q0 -191 64 -297t179 -106q81 0 135.5 66.5t73.5 188.5
v0h140zM471 0l-76 -125v0l51 6q65 0 103.5 -41.5t38.5 -111.5q0 -85 -54.5 -136.5t-144.5 -51.5q-35 0 -79.5 12t-82.5 32l29 82q30 -14 59 -22t49 -8q48 0 71.5 21.5t23.5 64.5q0 37 -21.5 58.5t-58.5 21.5q-7 0 -24.5 -4.5t-40.5 -11.5l-29 37l108 177h78z" />
    <glyph glyph-name="egrave" unicode="&#xe8;" 
d="M467 -28q-183 0 -291 144.5t-108 389.5q0 279 112.5 437t309.5 158q177 0 276.5 -152t99.5 -420v-57v0h-645v0q6 -159 63 -247q64 -102 190 -102q92 0 153.5 54.5t84.5 154.5v0h146v0q-24 -172 -126 -266t-265 -94zM712 618v0q-10 150 -56 225q-59 98 -189 98
q-112 0 -180 -114q-49 -83 -65 -209v0h490zM503 1213l-219 289h182l149 -289h-112z" />
    <glyph glyph-name="eacute" unicode="&#xe9;" 
d="M467 -28q-183 0 -291 144.5t-108 389.5q0 279 112.5 437t309.5 158q177 0 276.5 -152t99.5 -420v-57v0h-645v0q6 -159 63 -247q64 -102 190 -102q92 0 153.5 54.5t84.5 154.5v0h146v0q-24 -172 -126 -266t-265 -94zM712 618v0q-10 150 -56 225q-59 98 -189 98
q-112 0 -180 -114q-49 -83 -65 -209v0h490zM351 1213l149 289h182l-219 -289h-112z" />
    <glyph glyph-name="ecircumflex" unicode="&#xea;" 
d="M467 -28q-183 0 -291 144.5t-108 389.5q0 279 112.5 437t309.5 158q177 0 276.5 -152t99.5 -420v-57v0h-645v0q6 -159 63 -247q64 -102 190 -102q92 0 153.5 54.5t84.5 154.5v0h146v0q-24 -172 -126 -266t-265 -94zM712 618v0q-10 150 -56 225q-59 98 -189 98
q-112 0 -180 -114q-49 -83 -65 -209v0h490zM561 1502l166 -289h-133l-111 192v0l-111 -192h-133l166 289h78h78z" />
    <glyph glyph-name="edieresis" unicode="&#xeb;" 
d="M467 -28q-183 0 -291 144.5t-108 389.5q0 279 112.5 437t309.5 158q177 0 276.5 -152t99.5 -420v-57v0h-645v0q6 -159 63 -247q64 -102 190 -102q92 0 153.5 54.5t84.5 154.5v0h146v0q-24 -172 -126 -266t-265 -94zM712 618v0q-10 150 -56 225q-59 98 -189 98
q-112 0 -180 -114q-49 -83 -65 -209v0h490zM270 1445h154v-207h-154v207zM543 1445h154v-207h-154v207z" />
    <glyph glyph-name="dotlessi" unicode="&#x131;" horiz-adv-x="467" 
d="M160 0v1070v0h74h74v0v-1070v0h-74h-74v0z" />
    <glyph glyph-name="igrave" unicode="&#xec;" horiz-adv-x="467" 
d="M132 0v1070v0h74h74v0v-1070v0h-74h-74v0zM197 1213l-219 289h182l149 -289h-112z" />
    <glyph glyph-name="iacute" unicode="&#xed;" horiz-adv-x="467" 
d="M189 0v1070v0h74h74v0v-1070v0h-74h-74v0zM160 1213l149 289h182l-219 -289h-112z" />
    <glyph glyph-name="icircumflex" unicode="&#xee;" horiz-adv-x="467" 
d="M161 0v1070v0h74h74v0v-1070v0h-74h-74v0zM313 1502l166 -289h-133l-111 192v0l-111 -192h-133l166 289h78h78z" />
    <glyph glyph-name="idieresis" unicode="&#xef;" horiz-adv-x="467" 
d="M162 0v1070v0h74h74v0v-1070v0h-74h-74v0zM23 1445h154v-207h-154v207zM296 1445h154v-207h-154v207z" />
    <glyph glyph-name="eth" unicode="&#xf0;" 
d="M468 -28q-183 0 -296 150t-113 395q0 251 106 405.5t278 154.5q138 0 236 -137v0q-22 81 -62 152q-49 90 -124 167l-216 -125l-69 83l203 118q-64 54 -143 102l126 77q78 -47 143 -106l181 106l78 -78l-181 -105q81 -88 137 -195q125 -236 125 -530q0 -304 -106 -469
t-303 -165zM210 519q0 -177 70.5 -284t187.5 -107t187.5 107t70.5 284q0 182 -70.5 292t-187.5 110t-188 -110q-70 -110 -70 -292z" />
    <glyph glyph-name="ntilde" unicode="&#xf1;" 
d="M109 0v1070v0h69h70v0v-171v0v0q16 33 34 60q92 142 250 142q136 0 214.5 -102.5t78.5 -278.5v-720v0h-74h-74v0v731q0 98 -46 154t-126 56q-116 0 -182 -98.5t-66 -270.5v0v-572v0h-74h-74v0zM182 1241q14 113 56 165t118 52q36 0 69 -10.5t79 -36.5q27 -16 45.5 -22
t37.5 -6q37 0 57 22t28 71h80q-11 -104 -55.5 -162.5t-112.5 -58.5q-24 0 -56 10t-88 34q-42 18 -64.5 25t-36.5 7q-27 0 -47.5 -24t-29.5 -66h-80z" />
    <glyph glyph-name="ograve" unicode="&#xf2;" 
d="M467 -28q-183 0 -295.5 153.5t-112.5 403.5q0 257 112.5 414.5t295.5 157.5q184 0 296 -157.5t112 -414.5q0 -250 -112 -403.5t-296 -153.5v0zM467 128q117 0 187 110t70 293q0 188 -70 301t-187 113t-187 -113t-70 -301q0 -183 70 -293t187 -110v0zM487 1213l-219 289
h182l149 -289h-112z" />
    <glyph glyph-name="oacute" unicode="&#xf3;" 
d="M467 -28q-183 0 -295.5 153.5t-112.5 403.5q0 257 112.5 414.5t295.5 157.5q184 0 296 -157.5t112 -414.5q0 -250 -112 -403.5t-296 -153.5v0zM467 128q117 0 187 110t70 293q0 188 -70 301t-187 113t-187 -113t-70 -301q0 -183 70 -293t187 -110v0zM335 1213l149 289
h182l-219 -289h-112z" />
    <glyph glyph-name="ocircumflex" unicode="&#xf4;" 
d="M467 -28q-183 0 -295.5 153.5t-112.5 403.5q0 257 112.5 414.5t295.5 157.5q184 0 296 -157.5t112 -414.5q0 -250 -112 -403.5t-296 -153.5v0zM467 128q117 0 187 110t70 293q0 188 -70 301t-187 113t-187 -113t-70 -301q0 -183 70 -293t187 -110v0zM545 1502l166 -289
h-133l-111 192v0l-111 -192h-133l166 289h78h78z" />
    <glyph glyph-name="otilde" unicode="&#xf5;" 
d="M467 -28q-183 0 -295.5 153.5t-112.5 403.5q0 257 112.5 414.5t295.5 157.5q184 0 296 -157.5t112 -414.5q0 -250 -112 -403.5t-296 -153.5v0zM467 128q117 0 187 110t70 293q0 188 -70 301t-187 113t-187 -113t-70 -301q0 -183 70 -293t187 -110v0zM182 1241
q14 113 56 165t118 52q36 0 69 -10.5t79 -36.5q27 -16 45.5 -22t37.5 -6q37 0 57 22t28 71h80q-11 -104 -55.5 -162.5t-112.5 -58.5q-24 0 -56 10t-88 34q-42 18 -64.5 25t-36.5 7q-27 0 -47.5 -24t-29.5 -66h-80z" />
    <glyph glyph-name="odieresis" unicode="&#xf6;" 
d="M467 -28q-183 0 -295.5 153.5t-112.5 403.5q0 257 112.5 414.5t295.5 157.5q184 0 296 -157.5t112 -414.5q0 -250 -112 -403.5t-296 -153.5v0zM467 128q117 0 187 110t70 293q0 188 -70 301t-187 113t-187 -113t-70 -301q0 -183 70 -293t187 -110v0zM254 1445h154v-207
h-154v207zM527 1445h154v-207h-154v207z" />
    <glyph glyph-name="divide" unicode="&#xf7;" horiz-adv-x="981" 
d="M490 239q47 0 80 -40.5t33 -98.5t-33 -98t-80 -40t-80 40t-33 98t33 98.5t80 40.5zM66 589h848v-147h-848v147zM490 1069q47 0 80 -40.5t33 -98.5t-33 -98t-80 -40t-80 40t-33 98t33 98.5t80 40.5z" />
    <glyph glyph-name="oslash" unicode="&#xf8;" horiz-adv-x="1026" 
d="M474 470l-177 -248q69 -93 177 -94v0q117 0 187 110t70 293q0 144 -40 243zM474 -28q-160 0 -270 119l-103 -145l-54 55l110 154q-91 148 -91 374q0 257 112.5 414.5t295.5 157.5q162 0 269 -123l104 146l54 -55l-111 -155q92 -153 92 -385q0 -250 -112 -403.5
t-296 -153.5v0zM474 945q-117 0 -187 -113t-70 -301q1 -139 39 -237l218 306l177 248q-69 97 -177 97z" />
    <glyph glyph-name="ugrave" unicode="&#xf9;" 
d="M263 1070v-739q0 -96 45 -150.5t123 -54.5q113 0 177.5 99.5t64.5 274.5v0v570v0h74h74v0v-1070v0h-69h-70v0v179v0v0q-14 -34 -34 -65q-91 -142 -246 -142q-133 0 -210 90.5t-77 245.5v762v0h74h74v0zM488 1213l-219 289h182l149 -289h-112z" />
    <glyph glyph-name="uacute" unicode="&#xfa;" 
d="M263 1070v-739q0 -96 45 -150.5t123 -54.5q113 0 177.5 99.5t64.5 274.5v0v570v0h74h74v0v-1070v0h-69h-70v0v179v0v0q-14 -34 -34 -65q-91 -142 -246 -142q-133 0 -210 90.5t-77 245.5v762v0h74h74v0zM336 1213l149 289h182l-219 -289h-112z" />
    <glyph glyph-name="ucircumflex" unicode="&#xfb;" 
d="M263 1070v-739q0 -96 45 -150.5t123 -54.5q113 0 177.5 99.5t64.5 274.5v0v570v0h74h74v0v-1070v0h-69h-70v0v179v0v0q-14 -34 -34 -65q-91 -142 -246 -142q-133 0 -210 90.5t-77 245.5v762v0h74h74v0zM546 1502l166 -289h-133l-111 192v0l-111 -192h-133l166 289h78h78z
" />
    <glyph glyph-name="udieresis" unicode="&#xfc;" 
d="M263 1070v-739q0 -96 45 -150.5t123 -54.5q113 0 177.5 99.5t64.5 274.5v0v570v0h74h74v0v-1070v0h-69h-70v0v179v0v0q-14 -34 -34 -65q-91 -142 -246 -142q-133 0 -210 90.5t-77 245.5v762v0h74h74v0zM255 1445h154v-207h-154v207zM528 1445h154v-207h-154v207z" />
    <glyph glyph-name="yacute" unicode="&#xfd;" horiz-adv-x="840" 
d="M822 1070l-332 -1084q-81 -280 -135.5 -351t-187.5 -71q-38 -1 -70 14v167q39 -23 88 -23q57 0 86.5 47t74.5 200v0l-328 1101v0h83h84v0l236 -876v0v0l241 876v0h80h80v0zM332 1213l149 289h182l-219 -289h-112z" />
    <glyph glyph-name="thorn" unicode="&#xfe;" 
d="M98 1470v0h74h74v0v-540v0l6 10q92 161 262 161q159 0 256.5 -157.5t97.5 -414.5q0 -233 -109 -395t-267 -162q-156 0 -244 136l-2 3v-537v0h-74h-74v0v1896zM476 125q109 0 174.5 110t65.5 292q0 212 -58 312.5t-181 100.5q-114 0 -176 -118.5t-62 -337.5v0v0v0
q0 -163 65 -261t172 -98z" />
    <glyph glyph-name="ydieresis" unicode="&#xff;" horiz-adv-x="840" 
d="M822 1070l-332 -1084q-81 -280 -135.5 -351t-187.5 -71q-38 -1 -70 14v167q39 -23 88 -23q57 0 86.5 47t74.5 200v0l-328 1101v0h83h84v0l236 -876v0v0l241 876v0h80h80v0zM207 1445h154v-207h-154v207zM480 1445h154v-207h-154v207z" />
    <glyph glyph-name="glyph219" horiz-adv-x="0" 
d="M-259 190h518v-146h-518v146z" />
    <glyph glyph-name="Amacron" unicode="&#x100;" horiz-adv-x="1120" 
d="M23 0l454 1470h93h93l434 -1470v0h-91h-92v0l-117 428v0h-470v0l-118 -428v0h-93h-93v0zM566 1278l-188 -673v0h373v0l-185 673v0v0zM311 1773h518v-146h-518v146z" />
    <glyph glyph-name="glyph221" horiz-adv-x="0" 
d="M-259 146h518v-146h-518v146z" />
    <glyph glyph-name="amacron" unicode="&#x101;" 
d="M342 -28q-126 0 -203.5 84.5t-77.5 222.5q0 143 68 230t194 105l182 25q41 6 76 16q29 8 46.5 35t17.5 64v31q0 80 -52.5 124t-148.5 44q-92 0 -142 -51.5t-58 -153.5v0h-140v0q14 180 103 266.5t259 86.5q155 0 241 -83.5t86 -232.5v-594q0 -35 12.5 -51.5t38.5 -16.5
q10 0 47 9v-131q-23 -10 -46 -16t-37 -6q-85 0 -120 53q-23 38 -33 116v0q-19 -30 -45 -58q-110 -118 -268 -118zM645 413v125v0q-52 -28 -118 -40l-116 -18q-107 -17 -151 -58.5t-44 -126.5q0 -80 42.5 -128t113.5 -48q115 0 194 75q60 56 74 131q2 12 3 36q2 25 2 52z
M190 1359h518v-146h-518v146z" />
    <glyph glyph-name="glyph223" horiz-adv-x="0" 
d="M-10 5q-112 0 -173 68t-76 209h83q21 -87 62.5 -124t118.5 -37q73 0 113.5 37t61.5 124h80q-11 -135 -80 -206t-190 -71z" />
    <glyph glyph-name="Abreve" unicode="&#x102;" horiz-adv-x="1120" 
d="M23 0l454 1470h93h93l434 -1470v0h-91h-92v0l-117 428v0h-470v0l-118 -428v0h-93h-93v0zM566 1278l-188 -673v0h373v0l-185 673v0v0zM560 1588q-112 0 -173 68t-76 209h83q21 -87 62.5 -124t118.5 -37q73 0 113.5 37t61.5 124h80q-11 -135 -80 -206t-190 -71z" />
    <glyph glyph-name="glyph225" horiz-adv-x="0" 
d="M-10 5q-112 0 -173 68t-76 209h83q21 -87 62.5 -124t118.5 -37q73 0 113.5 37t61.5 124h80q-11 -135 -80 -206t-190 -71z" />
    <glyph glyph-name="abreve" unicode="&#x103;" 
d="M342 -28q-126 0 -203.5 84.5t-77.5 222.5q0 143 68 230t194 105l182 25q41 6 76 16q29 8 46.5 35t17.5 64v31q0 80 -52.5 124t-148.5 44q-92 0 -142 -51.5t-58 -153.5v0h-140v0q14 180 103 266.5t259 86.5q155 0 241 -83.5t86 -232.5v-594q0 -35 12.5 -51.5t38.5 -16.5
q10 0 47 9v-131q-23 -10 -46 -16t-37 -6q-85 0 -120 53q-23 38 -33 116v0q-19 -30 -45 -58q-110 -118 -268 -118zM645 413v125v0q-52 -28 -118 -40l-116 -18q-107 -17 -151 -58.5t-44 -126.5q0 -80 42.5 -128t113.5 -48q115 0 194 75q60 56 74 131q2 12 3 36q2 25 2 52z
M439 1218q-112 0 -173 68t-76 209h83q21 -87 62.5 -124t118.5 -37q73 0 113.5 37t61.5 124h80q-11 -135 -80 -206t-190 -71z" />
    <glyph glyph-name="glyph227" horiz-adv-x="0" 
d="M-185 -271q0 94 52.5 171.5t132.5 100.5h125q-107 -68 -144.5 -122.5t-37.5 -141.5q0 -48 24 -74.5t69 -26.5q23 0 52 8t59 22l29 -82q-39 -20 -83.5 -32t-78.5 -12q-90 0 -145 52q-54 52 -54 137z" />
    <glyph glyph-name="Aogonek" unicode="&#x104;" horiz-adv-x="1120" 
d="M23 0l454 1470h93h93l434 -1470v0h-91h-92v0l-117 428v0h-470v0l-118 -428v0h-93h-93v0zM566 1278l-188 -673v0h373v0l-185 673v0v0zM729 -271q0 94 52.5 171.5t132.5 100.5h125q-107 -68 -144.5 -122.5t-37.5 -141.5q0 -48 24 -74.5t69 -26.5q23 0 52 8t59 22l29 -82
q-39 -20 -83.5 -32t-78.5 -12q-90 0 -145 52q-54 52 -54 137z" />
    <glyph glyph-name="glyph229" horiz-adv-x="0" 
d="M-185 -271q0 94 52.5 171.5t132.5 100.5h125q-107 -68 -144.5 -122.5t-37.5 -141.5q0 -48 24 -74.5t69 -26.5q23 0 52 8t59 22l29 -82q-39 -20 -83.5 -32t-78.5 -12q-90 0 -145 52q-54 52 -54 137z" />
    <glyph glyph-name="aogonek" unicode="&#x105;" 
d="M342 -28q-126 0 -203.5 84.5t-77.5 222.5q0 143 68 230t194 105l182 25q41 6 76 16q29 8 46.5 35t17.5 64v31q0 80 -52.5 124t-148.5 44q-92 0 -142 -51.5t-58 -153.5v0h-140v0q14 180 103 266.5t259 86.5q155 0 241 -83.5t86 -232.5v-594q0 -35 12.5 -51.5t38.5 -16.5
q10 0 47 9v-131q-23 -10 -46 -16t-37 -6q-85 0 -120 53q-23 38 -33 116v0q-19 -30 -45 -58q-110 -118 -268 -118zM645 413v125v0q-52 -28 -118 -40l-116 -18q-107 -17 -151 -58.5t-44 -126.5q0 -80 42.5 -128t113.5 -48q115 0 194 75q60 56 74 131q2 12 3 36q2 25 2 52z
M534 -271q0 94 52.5 171.5t132.5 100.5h125q-107 -68 -144.5 -122.5t-37.5 -141.5q0 -48 24 -74.5t69 -26.5q23 0 52 8t59 22l29 -82q-39 -20 -83.5 -32t-78.5 -12q-90 0 -145 52q-54 52 -54 137z" />
    <glyph glyph-name="Cacute" unicode="&#x106;" horiz-adv-x="1212" 
d="M1142 544v0q-22 -279 -158.5 -430.5t-366.5 -151.5q-249 0 -396 210.5t-147 567.5q0 345 156 556.5t410 211.5q206 0 334 -125t157 -354v0h-159v0q-18 145 -104.5 223.5t-227.5 78.5q-184 0 -291 -162t-107 -442q0 -284 103 -436t295 -152q149 0 238.5 105.5t104.5 299.5
v0h159zM508 1583l149 289h182l-219 -289h-112z" />
    <glyph glyph-name="cacute" unicode="&#x107;" horiz-adv-x="840" 
d="M801 379v0q-15 -195 -111.5 -301t-257.5 -106q-174 0 -277.5 150.5t-103.5 406.5q0 257 114 414.5t299 157.5q147 0 234.5 -103t102.5 -292v0h-144v0q-9 113 -62 174.5t-143 61.5q-110 0 -176.5 -113.5t-66.5 -301.5q0 -191 64 -297t179 -106q81 0 135.5 66.5t73.5 188.5
v0h140zM332 1213l149 289h182l-219 -289h-112z" />
    <glyph glyph-name="glyph233" horiz-adv-x="0" 
d="M-78 1l-166 289h133l111 -192v0l111 192h133l-166 -289h-78h-78z" />
    <glyph glyph-name="Ccaron" unicode="&#x10c;" horiz-adv-x="1212" 
d="M1142 544v0q-22 -279 -158.5 -430.5t-366.5 -151.5q-249 0 -396 210.5t-147 567.5q0 345 156 556.5t410 211.5q206 0 334 -125t157 -354v0h-159v0q-18 145 -104.5 223.5t-227.5 78.5q-184 0 -291 -162t-107 -442q0 -284 103 -436t295 -152q149 0 238.5 105.5t104.5 299.5
v0h159zM562 1584l-166 289h133l111 -192v0l111 192h133l-166 -289h-78h-78z" />
    <glyph glyph-name="glyph235" horiz-adv-x="0" 
d="M-78 1l-166 289h133l111 -192v0l111 192h133l-166 -289h-78h-78z" />
    <glyph glyph-name="ccaron" unicode="&#x10d;" horiz-adv-x="840" 
d="M801 379v0q-15 -195 -111.5 -301t-257.5 -106q-174 0 -277.5 150.5t-103.5 406.5q0 257 114 414.5t299 157.5q147 0 234.5 -103t102.5 -292v0h-144v0q-9 113 -62 174.5t-143 61.5q-110 0 -176.5 -113.5t-66.5 -301.5q0 -191 64 -297t179 -106q81 0 135.5 66.5t73.5 188.5
v0h140zM386 1214l-166 289h133l111 -192v0l111 192h133l-166 -289h-78h-78z" />
    <glyph glyph-name="Dcaron" unicode="&#x10e;" horiz-adv-x="1212" 
d="M135 0v1470v0h81v0h381q257 0 396 -186.5t139 -529.5q0 -361 -137.5 -557.5t-391.5 -196.5h-387v0h-81v0zM297 168v0h306q179 0 270 144.5t91 425.5q0 278 -92.5 420.5t-274.5 142.5h-300v0v-1133zM456 1584l-166 289h133l111 -192v0l111 192h133l-166 -289h-78h-78z" />
    <glyph glyph-name="glyph238" horiz-adv-x="0" 
d="M-256 -28q-168 0 -271.5 163t-103.5 428q0 242 97.5 390t256.5 148q167 0 261 -158l16 -26v0v553v0h74h74v0v-1470v0h-69h-70v0v149v0l-19 -35q-89 -142 -246 -142zM-240 938q-126 0 -183 -98.5t-57 -314.5q0 -182 65.5 -291.5t173.5 -109.5q109 0 175 104.5t66 278.5
q0 207 -62.5 319t-177.5 112z" />
    <glyph glyph-name="glyph239" horiz-adv-x="0" 
d="M0 298v78h63h63v-132q0 -111 -30 -169.5t-96 -74.5v0v72v0q38 9 50 50q9 33 9 98v0h-59v78z" />
    <glyph glyph-name="dcaron" unicode="&#x10f;" horiz-adv-x="1110" 
d="M410 -28q-168 0 -271.5 163t-103.5 428q0 242 97.5 390t256.5 148q167 0 261 -158l16 -26v0v553v0h74h74v0v-1470v0h-69h-70v0v149v0l-19 -35q-89 -142 -246 -142zM426 938q-126 0 -183 -98.5t-57 -314.5q0 -182 65.5 -291.5t173.5 -109.5q109 0 175 104.5t66 278.5
q0 207 -62.5 319t-177.5 112zM957 1392v78h63h63v-132q0 -111 -30 -169.5t-96 -74.5v0v72v0q38 9 50 50q9 33 9 98v0h-59v78z" />
    <glyph glyph-name="Dcroat" unicode="&#x110;" horiz-adv-x="1212" 
d="M136 0v0v669v0h-136v173h136v0v628v0h81v0h380q257 0 396 -186.5t139 -529.5q0 -361 -137.5 -557.5t-390.5 -196.5h-387v0h-81zM298 1301v0v-459v0h320v-173h-320v0v-501v0h306q178 0 269 144.5t91 425.5q0 278 -92.5 420.5t-274.5 142.5h-299z" />
    <glyph glyph-name="dcroat" unicode="&#x111;" 
d="M434 -28q-168 0 -271.5 163t-103.5 428q0 242 97.5 390t256.5 148q167 0 261 -158l16 -26v0v270h-281v124h281v159v0h74h74v0v-159h116v-124h-116v-1187v0h-69h-70v0v149v0l-19 -35q-89 -142 -246 -142zM450 938q-126 0 -183 -98.5t-57 -314.5q0 -182 65.5 -291.5
t173.5 -109.5q109 0 175 104.5t66 278.5q0 207 -62.5 319t-177.5 112z" />
    <glyph glyph-name="Emacron" unicode="&#x112;" horiz-adv-x="1120" 
d="M145 0v0v1470v0h880v0v-87v-88v0h-718v0v-450v0h664v-88v-89v0h-664v0v-493v0h727v0v-87v-88v0h-889zM353 1773h518v-146h-518v146z" />
    <glyph glyph-name="emacron" unicode="&#x113;" 
d="M467 -28q-183 0 -291 144.5t-108 389.5q0 279 112.5 437t309.5 158q177 0 276.5 -152t99.5 -420v-57v0h-645v0q6 -159 63 -247q64 -102 190 -102q92 0 153.5 54.5t84.5 154.5v0h146v0q-24 -172 -126 -266t-265 -94zM712 618v0q-10 150 -56 225q-59 98 -189 98
q-112 0 -180 -114q-49 -83 -65 -209v0h490zM224 1359h518v-146h-518v146z" />
    <glyph glyph-name="glyph245" horiz-adv-x="0" 
d="M-77 231h154v-207h-154v207z" />
    <glyph glyph-name="Edotaccent" unicode="&#x116;" horiz-adv-x="1120" 
d="M145 0v0v1470v0h880v0v-87v-88v0h-718v0v-450v0h664v-88v-89v0h-664v0v-493v0h727v0v-87v-88v0h-889zM535 1814h154v-207h-154v207z" />
    <glyph glyph-name="glyph247" horiz-adv-x="0" 
d="M-77 231h154v-207h-154v207z" />
    <glyph glyph-name="edotaccent" unicode="&#x117;" 
d="M467 -28q-183 0 -291 144.5t-108 389.5q0 279 112.5 437t309.5 158q177 0 276.5 -152t99.5 -420v-57v0h-645v0q6 -159 63 -247q64 -102 190 -102q92 0 153.5 54.5t84.5 154.5v0h146v0q-24 -172 -126 -266t-265 -94zM712 618v0q-10 150 -56 225q-59 98 -189 98
q-112 0 -180 -114q-49 -83 -65 -209v0h490zM406 1444h154v-207h-154v207z" />
    <glyph glyph-name="Eogonek" unicode="&#x118;" horiz-adv-x="1120" 
d="M145 0v0v1470v0h880v0v-87v-88v0h-718v0v-450v0h664v-88v-89v0h-664v0v-493v0h727v0v-87v-88v0h-889zM671 -271q0 94 52.5 171.5t132.5 100.5h125q-107 -68 -144.5 -122.5t-37.5 -141.5q0 -48 24 -74.5t69 -26.5q23 0 52 8t59 22l29 -82q-39 -20 -83.5 -32t-78.5 -12
q-90 0 -145 52q-54 52 -54 137z" />
    <glyph glyph-name="eogonek" unicode="&#x119;" 
d="M467 -28q-183 0 -291 144.5t-108 389.5q0 279 112.5 437t309.5 158q177 0 276.5 -152t99.5 -420v-57v0h-645v0q6 -159 63 -247q64 -102 190 -102q92 0 153.5 54.5t84.5 154.5v0h146v0q-24 -172 -126 -266t-265 -94zM712 618v0q-10 150 -56 225q-59 98 -189 98
q-112 0 -180 -114q-49 -83 -65 -209v0h490zM315 -271q0 94 52.5 171.5t132.5 100.5h125q-107 -68 -144.5 -122.5t-37.5 -141.5q0 -48 24 -74.5t69 -26.5q23 0 52 8t59 22l29 -82q-39 -20 -83.5 -32t-78.5 -12q-90 0 -145 52q-54 52 -54 137z" />
    <glyph glyph-name="Ecaron" unicode="&#x11a;" horiz-adv-x="1120" 
d="M145 0v0v1470v0h880v0v-87v-88v0h-718v0v-450v0h664v-88v-89v0h-664v0v-493v0h727v0v-87v-88v0h-889zM534 1584l-166 289h133l111 -192v0l111 192h133l-166 -289h-78h-78z" />
    <glyph glyph-name="ecaron" unicode="&#x11b;" 
d="M467 -28q-183 0 -291 144.5t-108 389.5q0 279 112.5 437t309.5 158q177 0 276.5 -152t99.5 -420v-57v0h-645v0q6 -159 63 -247q64 -102 190 -102q92 0 153.5 54.5t84.5 154.5v0h146v0q-24 -172 -126 -266t-265 -94zM712 618v0q-10 150 -56 225q-59 98 -189 98
q-112 0 -180 -114q-49 -83 -65 -209v0h490zM405 1214l-166 289h133l111 -192v0l111 192h133l-166 -289h-78h-78z" />
    <glyph glyph-name="Gbreve" unicode="&#x11e;" horiz-adv-x="1307" 
d="M639 -38q-251 0 -405 210t-154 553q0 352 161 567.5t422 215.5q196 0 333 -132t164 -347v0h-159v0q-17 136 -113.5 219t-237.5 83q-186 0 -294 -163t-108 -445q0 -274 108 -433t294 -159q177 1 294 142q38 46 61.5 133t23.5 182v29v0h-375v171h528v-785h-104l-42 165v0
q-152 -205 -397 -206zM653 1588q-112 0 -173 68t-76 209h83q21 -87 62.5 -124t118.5 -37q73 0 113.5 37t61.5 124h80q-11 -135 -80 -206t-190 -71z" />
    <glyph glyph-name="gbreve" unicode="&#x11f;" 
d="M457 -306q109 0 171 77.5t62 212.5v132l-1 -2q-87 -142 -240 -142q-171 0 -276 153.5t-105 403.5q0 257 97.5 414.5t255.5 157.5q167 0 261 -157l15 -25v0v151v0h141v-1029q0 -234 -101.5 -364.5t-283.5 -130.5q-158 0 -250 85t-104 242v0h148v0q13 -86 68 -132.5
t142 -46.5zM458 940q-122 0 -180 -100.5t-58 -312.5q0 -182 65 -292t172 -110q109 0 174.5 104.5t65.5 278.5q0 207 -62 319.5t-177 112.5zM470 1218q-112 0 -173 68t-76 209h83q21 -87 62.5 -124t118.5 -37q73 0 113.5 37t61.5 124h80q-11 -135 -80 -206t-190 -71z" />
    <glyph glyph-name="glyph255" horiz-adv-x="0" 
d="M0 282v94h89h88v-132q0 -105 -42.5 -163.5t-134.5 -80.5v0v102v0q50 12 67 42q10 19 13 44v0h-80v94z" />
    <glyph glyph-name="Gcommaaccent" unicode="&#x122;" horiz-adv-x="1307" 
d="M639 -38q-251 0 -405 210t-154 553q0 352 161 567.5t422 215.5q196 0 333 -132t164 -347v0h-159v0q-17 136 -113.5 219t-237.5 83q-186 0 -294 -163t-108 -445q0 -274 108 -433t294 -159q177 1 294 142q38 46 61.5 133t23.5 182v29v0h-375v171h528v-785h-104l-42 165v0
q-152 -205 -397 -206zM551 -237v94h89h88v-132q0 -105 -42.5 -163.5t-134.5 -80.5v0v102v0q50 12 67 42q10 19 13 44v0h-80v94z" />
    <glyph glyph-name="glyph257" horiz-adv-x="0" 
d="M88 94v-94h-89h-88v132q0 105 42.5 163.5t134.5 80.5v0v-102v0q-50 -12 -67 -42q-10 -19 -13 -44v0h80v-94z" />
    <glyph glyph-name="gcommaaccent" unicode="&#x123;" 
d="M457 -306q109 0 171 77.5t62 212.5v132l-1 -2q-87 -142 -240 -142q-171 0 -276 153.5t-105 403.5q0 257 97.5 414.5t255.5 157.5q167 0 261 -157l15 -25v0v151v0h141v-1029q0 -234 -101.5 -364.5t-283.5 -130.5q-158 0 -250 85t-104 242v0h148v0q13 -86 68 -132.5
t142 -46.5zM458 940q-122 0 -180 -100.5t-58 -312.5q0 -182 65 -292t172 -110q109 0 174.5 104.5t65.5 278.5q0 207 -62 319.5t-177 112.5zM509 1307v-94h-89h-88v132q0 105 42.5 163.5t134.5 80.5v0v-102v0q-50 -12 -67 -42q-10 -19 -13 -44v0h80v-94z" />
    <glyph glyph-name="Imacron" unicode="&#x12a;" horiz-adv-x="467" 
d="M162 0v1470v0h81h81v0v-1470v0h-81h-81v0zM-16 1773h518v-146h-518v146z" />
    <glyph glyph-name="imacron" unicode="&#x12b;" horiz-adv-x="373" 
d="M102 0v1070v0h74h74v0v-1070v0h-74h-74v0zM-83 1359h518v-146h-518v146z" />
    <glyph glyph-name="Iogonek" unicode="&#x12e;" horiz-adv-x="467" 
d="M173 0v1470v0h81h81v0v-1470v0h-81h-81v0zM25 -271q0 94 52.5 171.5t132.5 100.5h125q-107 -68 -144.5 -122.5t-37.5 -141.5q0 -48 24 -74.5t69 -26.5q23 0 52 8t59 22l29 -82q-39 -20 -83.5 -32t-78.5 -12q-90 0 -145 52q-54 52 -54 137z" />
    <glyph glyph-name="iogonek" unicode="&#x12f;" horiz-adv-x="373" 
d="M113 0v1070v0h74h74v0v-1070v0h-74h-74v0zM112 1470h150v-208h-150v208zM-42 -271q0 94 52.5 171.5t132.5 100.5h125q-107 -68 -144.5 -122.5t-37.5 -141.5q0 -48 24 -74.5t69 -26.5q23 0 52 8t59 22l29 -82q-39 -20 -83.5 -32t-78.5 -12q-90 0 -145 52q-54 52 -54 137z
" />
    <glyph glyph-name="Idotaccent" unicode="&#x130;" horiz-adv-x="467" 
d="M154 0v1470v0h81h81v0v-1470v0h-81h-81v0zM158 1814h154v-207h-154v207z" />
    <glyph glyph-name="Kcommaaccent" unicode="&#x136;" horiz-adv-x="1120" 
d="M127 0v1470v0h81h81v0v-713v0l580 713v0h112h113v0l-500 -593v0l520 -877v0h-104h-104v0l-428 741v0l-189 -225v0v-516v0h-81h-81v0zM509 -237v94h89h88v-132q0 -105 -42.5 -163.5t-134.5 -80.5v0v102v0q50 12 67 42q10 19 13 44v0h-80v94z" />
    <glyph glyph-name="kcommaaccent" unicode="&#x137;" horiz-adv-x="840" 
d="M113 0v1470v0h74h74v0v-852v0l373 452v0h96h96v0l-344 -400v0l359 -670v0h-93h-94v0l-280 548v0l-113 -132v0v-416v0h-74h-74v0zM369 -237v94h89h88v-132q0 -105 -42.5 -163.5t-134.5 -80.5v0v102v0q50 12 67 42q10 19 13 44v0h-80v94z" />
    <glyph glyph-name="Lacute" unicode="&#x139;" 
d="M134 0v0v1470v0h81h81v0v-1295v0h612v0v-87v-88v0h-774zM127 1583l149 289h182l-219 -289h-112z" />
    <glyph glyph-name="lacute" unicode="&#x13a;" horiz-adv-x="373" 
d="M116 0v1470v0h74h74v0v-1470v0h-74h-74v0zM58 1583l149 289h182l-219 -289h-112z" />
    <glyph glyph-name="Lcommaaccent" unicode="&#x13b;" 
d="M127 0v0v1470v0h81h81v0v-1295v0h612v0v-87v-88v0h-774zM426 -237v94h89h88v-132q0 -105 -42.5 -163.5t-134.5 -80.5v0v102v0q50 12 67 42q10 19 13 44v0h-80v94z" />
    <glyph glyph-name="lcommaaccent" unicode="&#x13c;" horiz-adv-x="373" 
d="M127 0v1470v0h74h74v0v-1470v0h-74h-74v0zM113 -237v94h89h88v-132q0 -105 -42.5 -163.5t-134.5 -80.5v0v102v0q50 12 67 42q10 19 13 44v0h-80v94z" />
    <glyph glyph-name="Lcaron" unicode="&#x13d;" 
d="M127 0v0v1470v0h81h81v0v-1295v0h612v0v-87v-88v0h-774zM491 1392v78h63h63v-132q0 -111 -30 -169.5t-96 -74.5v0v72v0q38 9 50 50q9 33 9 98v0h-59v78z" />
    <glyph glyph-name="lcaron" unicode="&#x13e;" horiz-adv-x="616" 
d="M224 0v1470v0h74h74v0v-1470v0h-74h-74v0zM515 1392v78h63h63v-132q0 -111 -30 -169.5t-96 -74.5v0v72v0q38 9 50 50q9 33 9 98v0h-59v78z" />
    <glyph glyph-name="Lslash" unicode="&#x141;" 
d="M124 0v0v701l-162 -112v118l162 112v651v0h81h81v0v-538l194 134v-118l-194 -134v-639v0h612v0v-87v-88v0h-774z" />
    <glyph glyph-name="lslash" unicode="&#x142;" horiz-adv-x="373" 
d="M117 0v692l-147 -100v117l147 99v662v0h74h74v0v-561l147 99v-117l-147 -99v-792v0h-74h-74v0z" />
    <glyph glyph-name="Nacute" unicode="&#x143;" horiz-adv-x="1212" 
d="M286 0v0h-79h-80v0v1470v0h97h97v0l605 -1195v0v0v1195v0h79h80v0v-1470h-87h-88l-624 1188v0v0v-1188zM474 1605l149 289h182l-219 -289h-112z" />
    <glyph glyph-name="nacute" unicode="&#x144;" 
d="M109 0v1070v0h69h70v0v-171v0v0q16 33 34 60q92 142 250 142q136 0 214.5 -102.5t78.5 -278.5v-720v0h-74h-74v0v731q0 98 -46 154t-126 56q-116 0 -182 -98.5t-66 -270.5v0v-572v0h-74h-74v0zM335 1213l149 289h182l-219 -289h-112z" />
    <glyph glyph-name="Ncommaaccent" unicode="&#x145;" horiz-adv-x="1212" 
d="M286 0v0h-79h-80v0v1470v0h97h97v0l605 -1195v0v0v1195v0h79h80v0v-1470h-87h-88l-624 1188v0v0v-1188zM518 -237v94h89h88v-132q0 -105 -42.5 -163.5t-134.5 -80.5v0v102v0q50 12 67 42q10 19 13 44v0h-80v94z" />
    <glyph glyph-name="ncommaaccent" unicode="&#x146;" 
d="M109 0v1070v0h69h70v0v-171v0v0q16 33 34 60q92 142 250 142q136 0 214.5 -102.5t78.5 -278.5v-720v0h-74h-74v0v731q0 98 -46 154t-126 56q-116 0 -182 -98.5t-66 -270.5v0v-572v0h-74h-74v0zM379 -237v94h89h88v-132q0 -105 -42.5 -163.5t-134.5 -80.5v0v102v0
q50 12 67 42q10 19 13 44v0h-80v94z" />
    <glyph glyph-name="Ncaron" unicode="&#x147;" horiz-adv-x="1212" 
d="M286 0v0h-79h-80v0v1470v0h97h97v0l605 -1195v0v0v1195v0h79h80v0v-1470h-87h-88l-624 1188v0v0v-1188zM528 1606l-166 289h133l111 -192v0l111 192h133l-166 -289h-78h-78z" />
    <glyph glyph-name="ncaron" unicode="&#x148;" 
d="M109 0v1070v0h69h70v0v-171v0v0q16 33 34 60q92 142 250 142q136 0 214.5 -102.5t78.5 -278.5v-720v0h-74h-74v0v731q0 98 -46 154t-126 56q-116 0 -182 -98.5t-66 -270.5v0v-572v0h-74h-74v0zM389 1214l-166 289h133l111 -192v0l111 192h133l-166 -289h-78h-78z" />
    <glyph glyph-name="Omacron" unicode="&#x14c;" horiz-adv-x="1307" 
d="M653 -38q-263 0 -425 210t-162 553q0 359 159 571t428 212q270 0 429 -212t159 -571q0 -343 -162 -553t-426 -210v0zM653 139q191 0 305.5 160.5t114.5 427.5q0 280 -112.5 442t-307.5 162q-194 0 -306.5 -162t-112.5 -442q0 -267 114.5 -427.5t304.5 -160.5v0zM394 1773
h518v-146h-518v146z" />
    <glyph glyph-name="omacron" unicode="&#x14d;" 
d="M467 -28q-183 0 -295.5 153.5t-112.5 403.5q0 257 112.5 414.5t295.5 157.5q184 0 296 -157.5t112 -414.5q0 -250 -112 -403.5t-296 -153.5v0zM467 128q117 0 187 110t70 293q0 188 -70 301t-187 113t-187 -113t-70 -301q0 -183 70 -293t187 -110v0zM208 1359h518v-146
h-518v146z" />
    <glyph glyph-name="glyph282" horiz-adv-x="0" 
d="M-222 0l149 289h182l-219 -289h-112zM80 0l149 289h182l-219 -289h-112z" />
    <glyph glyph-name="Ohungarumlaut" unicode="&#x150;" horiz-adv-x="1307" 
d="M653 -38q-263 0 -425 210t-162 553q0 359 159 571t428 212q270 0 429 -212t159 -571q0 -343 -162 -553t-426 -210v0zM653 139q191 0 305.5 160.5t114.5 427.5q0 280 -112.5 442t-307.5 162q-194 0 -306.5 -162t-112.5 -442q0 -267 114.5 -427.5t304.5 -160.5v0zM431 1583
l149 289h182l-219 -289h-112zM733 1583l149 289h182l-219 -289h-112z" />
    <glyph glyph-name="glyph284" horiz-adv-x="0" 
d="M-222 0l149 289h182l-219 -289h-112zM80 0l149 289h182l-219 -289h-112z" />
    <glyph glyph-name="ohungarumlaut" unicode="&#x151;" 
d="M467 -28q-183 0 -295.5 153.5t-112.5 403.5q0 257 112.5 414.5t295.5 157.5q184 0 296 -157.5t112 -414.5q0 -250 -112 -403.5t-296 -153.5v0zM467 128q117 0 187 110t70 293q0 188 -70 301t-187 113t-187 -113t-70 -301q0 -183 70 -293t187 -110v0zM245 1213l149 289
h182l-219 -289h-112zM547 1213l149 289h182l-219 -289h-112z" />
    <glyph glyph-name="OE" unicode="&#x152;" horiz-adv-x="1679" 
d="M579 1508q181 1 295 -177v0v139h162v0h584v0v-87v-88v0h-584v0v-450v0h554v-88v-89v0h-554v0v-493v0h584v0v-87v-88v0h-584v0h-162v140v0q-124 -174 -314 -175q-224 0 -361.5 209.5t-137.5 551.5q0 351 143 567q143 215 375 215zM575 1339q-167 0 -256.5 -167t-89.5 -480
q0 -270 89.5 -414t256.5 -144q161 0 254 150q14 22 25 47q8 19 14 47t6 49v598q0 24 -4.5 53t-11.5 46q-11 28 -24 51q-87 164 -259 164z" />
    <glyph glyph-name="oe" unicode="&#x153;" horiz-adv-x="1585" 
d="M463 1101q182 0 294 -158q20 -28 36 -59v0l37 59q112 158 309 158q177 0 276.5 -152t99.5 -420v-57v0h-645v0q6 -159 63 -247q64 -102 190 -102q92 0 153.5 54.5t84.5 154.5v0h146v0q-24 -172 -126 -266t-265 -94q-183 0 -291 145q-20 27 -37 58v0l-32 -50
q-111 -153 -293 -153q-181 0 -292.5 153.5t-111.5 403.5q0 257 112 415q111 157 292 157zM463 945q-115 0 -184 -113t-69 -301q0 -183 69 -293t184 -110t184.5 110t69.5 293q0 188 -70 301q-69 113 -184 113zM1361 618v0q-10 150 -56 225q-59 98 -189 98q-112 0 -180 -114
q-49 -83 -65 -209v0h490z" />
    <glyph glyph-name="Racute" unicode="&#x154;" horiz-adv-x="1212" 
d="M147 0v1470v0h81v0h492q186 0 283 -104.5t97 -304.5q0 -185 -108 -294q-25 -25 -55 -46v0l30 -19q106 -77 111 -258l8 -266q2 -70 15 -98.5t48 -46.5v-32h-203q-6 15 -12.5 91t-9.5 171l-2 115q-2 136 -50.5 194t-159.5 58h-403v0v-630v0h-81h-81v0zM309 799v0h398
q116 0 170.5 60.5t54.5 188.5q0 130 -53.5 192t-165.5 62h-404v0v-503zM444 1583l149 289h182l-219 -289h-112z" />
    <glyph glyph-name="racute" unicode="&#x155;" horiz-adv-x="559" 
d="M129 0v1070v0h69h70v0v-191v0v0q18 43 39 80q84 142 212 142q20 1 38 -3v-190l-32 3q-116 0 -182 -82.5t-66 -227.5v0v-601v0h-74h-74v0zM211 1213l149 289h182l-219 -289h-112z" />
    <glyph glyph-name="Rcommaaccent" unicode="&#x156;" horiz-adv-x="1212" 
d="M147 0v1470v0h81v0h492q186 0 283 -104.5t97 -304.5q0 -185 -108 -294q-25 -25 -55 -46v0l30 -19q106 -77 111 -258l8 -266q2 -70 15 -98.5t48 -46.5v-32h-203q-6 15 -12.5 91t-9.5 171l-2 115q-2 136 -50.5 194t-159.5 58h-403v0v-630v0h-81h-81v0zM309 799v0h398
q116 0 170.5 60.5t54.5 188.5q0 130 -53.5 192t-165.5 62h-404v0v-503zM530 -237v94h89h88v-132q0 -105 -42.5 -163.5t-134.5 -80.5v0v102v0q50 12 67 42q10 19 13 44v0h-80v94z" />
    <glyph glyph-name="rcommaaccent" unicode="&#x157;" horiz-adv-x="559" 
d="M112 0v1070v0h69h70v0v-191v0v0q18 43 39 80q84 142 212 142q20 1 38 -3v-190l-32 3q-116 0 -182 -82.5t-66 -227.5v0v-601v0h-74h-74v0zM98 -237v94h89h88v-132q0 -105 -42.5 -163.5t-134.5 -80.5v0v102v0q50 12 67 42q10 19 13 44v0h-80v94z" />
    <glyph glyph-name="Rcaron" unicode="&#x158;" horiz-adv-x="1212" 
d="M147 0v1470v0h81v0h492q186 0 283 -104.5t97 -304.5q0 -185 -108 -294q-25 -25 -55 -46v0l30 -19q106 -77 111 -258l8 -266q2 -70 15 -98.5t48 -46.5v-32h-203q-6 15 -12.5 91t-9.5 171l-2 115q-2 136 -50.5 194t-159.5 58h-403v0v-630v0h-81h-81v0zM309 799v0h398
q116 0 170.5 60.5t54.5 188.5q0 130 -53.5 192t-165.5 62h-404v0v-503zM498 1584l-166 289h133l111 -192v0l111 192h133l-166 -289h-78h-78z" />
    <glyph glyph-name="rcaron" unicode="&#x159;" horiz-adv-x="559" 
d="M108 0v1070v0h69h70v0v-191v0v0q18 43 39 80q84 142 212 142q20 1 38 -3v-190l-32 3q-116 0 -182 -82.5t-66 -227.5v0v-601v0h-74h-74v0zM244 1214l-166 289h133l111 -192v0l111 192h133l-166 -289h-78h-78z" />
    <glyph glyph-name="Sacute" unicode="&#x15a;" horiz-adv-x="1120" 
d="M849 1044v0q-4 140 -79 216.5t-209 76.5q-140 0 -209.5 -64t-69.5 -192q0 -95 62 -142q61 -46 245 -90q257 -62 354 -156t97 -282q0 -207 -129.5 -328t-349.5 -121q-226 0 -350.5 132.5t-128.5 375.5v0h153v0q2 -161 87 -249t239 -88q159 0 238 63t79 190q0 115 -62 168
q-61 53 -245 97q-257 62 -354 151t-97 265q0 203 119 322t322 119q205 0 319.5 -121t121.5 -343v0h-153zM429 1583l149 289h182l-219 -289h-112z" />
    <glyph glyph-name="sacute" unicode="&#x15b;" horiz-adv-x="840" 
d="M606 760v0q1 89 -48.5 137t-141.5 48q-95 0 -142.5 -38.5t-47.5 -116.5q0 -64 43 -95t171 -59q193 -43 266 -112t73 -207q0 -159 -98 -252t-265 -93q-178 0 -269 92.5t-94 277.5v0h144v0q10 -114 63 -166.5t156 -52.5q109 0 163 43t54 130q0 70 -43 103q-42 33 -168 61
q-193 43 -267 112q-73 68 -73 207q0 148 90 235t244 87q152 0 244 -94q90 -92 90 -241v-6v0h-144zM284 1213l149 289h182l-219 -289h-112z" />
    <glyph glyph-name="Scedilla" unicode="&#x15e;" horiz-adv-x="1120" 
d="M849 1044v0q-4 140 -79 216.5t-209 76.5q-140 0 -209.5 -64t-69.5 -192q0 -95 62 -142q61 -46 245 -90q257 -62 354 -156t97 -282q0 -207 -129.5 -328t-349.5 -121q-226 0 -350.5 132.5t-128.5 375.5v0h153v0q2 -161 87 -249t239 -88q159 0 238 63t79 190q0 115 -62 168
q-61 53 -245 97q-257 62 -354 151t-97 265q0 203 119 322t322 119q205 0 319.5 -121t121.5 -343v0h-153zM629 0l-76 -125v0l51 6q65 0 103.5 -41.5t38.5 -111.5q0 -85 -54.5 -136.5t-144.5 -51.5q-35 0 -79.5 12t-82.5 32l29 82q30 -14 59 -22t49 -8q48 0 71.5 21.5
t23.5 64.5q0 37 -21.5 58.5t-58.5 21.5q-7 0 -24.5 -4.5t-40.5 -11.5l-29 37l108 177h78z" />
    <glyph glyph-name="scedilla" unicode="&#x15f;" horiz-adv-x="840" 
d="M606 760v0q1 89 -48.5 137t-141.5 48q-95 0 -142.5 -38.5t-47.5 -116.5q0 -64 43 -95t171 -59q193 -43 266 -112t73 -207q0 -159 -98 -252t-265 -93q-178 0 -269 92.5t-94 277.5v0h144v0q10 -114 63 -166.5t156 -52.5q109 0 163 43t54 130q0 70 -43 103q-42 33 -168 61
q-193 43 -267 112q-73 68 -73 207q0 148 90 235t244 87q152 0 244 -94q90 -92 90 -241v-6v0h-144zM477 0l-76 -125v0l51 6q65 0 103.5 -41.5t38.5 -111.5q0 -85 -54.5 -136.5t-144.5 -51.5q-35 0 -79.5 12t-82.5 32l29 82q30 -14 59 -22t49 -8q48 0 71.5 21.5t23.5 64.5
q0 37 -21.5 58.5t-58.5 21.5q-7 0 -24.5 -4.5t-40.5 -11.5l-29 37l108 177h78z" />
    <glyph glyph-name="Scaron" unicode="&#x160;" horiz-adv-x="1120" 
d="M849 1044v0q-4 140 -79 216.5t-209 76.5q-140 0 -209.5 -64t-69.5 -192q0 -95 62 -142q61 -46 245 -90q257 -62 354 -156t97 -282q0 -207 -129.5 -328t-349.5 -121q-226 0 -350.5 132.5t-128.5 375.5v0h153v0q2 -161 87 -249t239 -88q159 0 238 63t79 190q0 115 -62 168
q-61 53 -245 97q-257 62 -354 151t-97 265q0 203 119 322t322 119q205 0 319.5 -121t121.5 -343v0h-153zM483 1584l-166 289h133l111 -192v0l111 192h133l-166 -289h-78h-78z" />
    <glyph glyph-name="scaron" unicode="&#x161;" horiz-adv-x="840" 
d="M606 760v0q1 89 -48.5 137t-141.5 48q-95 0 -142.5 -38.5t-47.5 -116.5q0 -64 43 -95t171 -59q193 -43 266 -112t73 -207q0 -159 -98 -252t-265 -93q-178 0 -269 92.5t-94 277.5v0h144v0q10 -114 63 -166.5t156 -52.5q109 0 163 43t54 130q0 70 -43 103q-42 33 -168 61
q-193 43 -267 112q-73 68 -73 207q0 148 90 235t244 87q152 0 244 -94q90 -92 90 -241v-6v0h-144zM338 1214l-166 289h133l111 -192v0l111 192h133l-166 -289h-78h-78z" />
    <glyph glyph-name="glyph300" horiz-adv-x="0" 
d="M39 0l-76 -125v0l51 6q65 0 103.5 -41.5t38.5 -111.5q0 -85 -54.5 -136.5t-144.5 -51.5q-35 0 -79.5 12t-82.5 32l29 82q30 -14 59 -22t49 -8q48 0 71.5 21.5t23.5 64.5q0 37 -21.5 58.5t-58.5 21.5q-7 0 -24.5 -4.5t-40.5 -11.5l-29 37l108 177h78z" />
    <glyph glyph-name="Tcommaaccent" unicode="&#x162;" horiz-adv-x="1026" 
d="M432 0v1295v0h-409v0v87v88v0h980v0v-87v-88v0h-409v0v-1295v0h-81h-81v0zM552 0l-76 -125v0l51 6q65 0 103.5 -41.5t38.5 -111.5q0 -85 -54.5 -136.5t-144.5 -51.5q-35 0 -79.5 12t-82.5 32l29 82q30 -14 59 -22t49 -8q48 0 71.5 21.5t23.5 64.5q0 37 -21.5 58.5
t-58.5 21.5q-7 0 -24.5 -4.5t-40.5 -11.5l-29 37l108 177h78z" />
    <glyph glyph-name="glyph302" horiz-adv-x="0" 
d="M39 0l-76 -125v0l51 6q65 0 103.5 -41.5t38.5 -111.5q0 -85 -54.5 -136.5t-144.5 -51.5q-35 0 -79.5 12t-82.5 32l29 82q30 -14 59 -22t49 -8q48 0 71.5 21.5t23.5 64.5q0 37 -21.5 58.5t-58.5 21.5q-7 0 -24.5 -4.5t-40.5 -11.5l-29 37l108 177h78z" />
    <glyph glyph-name="tcommaaccent" unicode="&#x163;" horiz-adv-x="467" 
d="M432 -1q-48 -15 -118 -16q-92 0 -132.5 57t-40.5 186v695v0h-118v149h118v0v300h148v-300v0h143v-149h-143v0v-695q0 -47 21 -67t70 -20q30 0 52 4v-144zM352 0l-76 -125v0l51 6q65 0 103.5 -41.5t38.5 -111.5q0 -85 -54.5 -136.5t-144.5 -51.5q-35 0 -79.5 12t-82.5 32
l29 82q30 -14 59 -22t49 -8q48 0 71.5 21.5t23.5 64.5q0 37 -21.5 58.5t-58.5 21.5q-7 0 -24.5 -4.5t-40.5 -11.5l-29 37l108 177h78z" />
    <glyph glyph-name="Tcaron" unicode="&#x164;" horiz-adv-x="1026" 
d="M432 0v1295v0h-409v0v87v88v0h980v0v-87v-88v0h-409v0v-1295v0h-81h-81v0zM435 1584l-166 289h133l111 -192v0l111 192h133l-166 -289h-78h-78z" />
    <glyph glyph-name="tcaron" unicode="&#x165;" horiz-adv-x="610" 
d="M442 -1q-48 -15 -118 -16q-92 0 -132.5 57t-40.5 186v695v0h-118v149h118v0v300h148v-300v0h143v-149h-143v0v-695q0 -47 21 -67t70 -20q30 0 52 4v-144zM503 1392v78h63h63v-132q0 -111 -30 -169.5t-96 -74.5v0v72v0q38 9 50 50q9 33 9 98v0h-59v78z" />
    <glyph glyph-name="Umacron" unicode="&#x16a;" horiz-adv-x="1212" 
d="M1081 602q1 -339 -110.5 -489.5t-363.5 -150.5q-251 0 -362 150.5t-112 489.5v868v0h81h81v0v-876q0 -241 75 -347.5t245 -106.5t245 106.5t75 347.5v876v0h73h73v0v-868zM356 1773h518v-146h-518v146z" />
    <glyph glyph-name="umacron" unicode="&#x16b;" 
d="M263 1070v-739q0 -96 45 -150.5t123 -54.5q113 0 177.5 99.5t64.5 274.5v0v570v0h74h74v0v-1070v0h-69h-70v0v179v0v0q-14 -34 -34 -65q-91 -142 -246 -142q-133 0 -210 90.5t-77 245.5v762v0h74h74v0zM209 1359h518v-146h-518v146z" />
    <glyph glyph-name="Uring" unicode="&#x16e;" horiz-adv-x="1212" 
d="M1081 602q1 -339 -110.5 -489.5t-363.5 -150.5q-251 0 -362 150.5t-112 489.5v868v0h81h81v0v-876q0 -241 75 -347.5t245 -106.5t245 106.5t75 347.5v876v0h73h73v0v-868zM615 1542q-65 0 -109.5 54.5t-44.5 133.5t44.5 133.5t109.5 54.5t110 -54.5t45 -133.5t-45 -133.5
t-110 -54.5v0zM615 1616q34 0 57.5 33t23.5 81t-23.5 81t-57.5 33t-57 -33t-23 -81t23 -81t57 -33v0z" />
    <glyph glyph-name="uring" unicode="&#x16f;" 
d="M263 1070v-739q0 -96 45 -150.5t123 -54.5q113 0 177.5 99.5t64.5 274.5v0v570v0h74h74v0v-1070v0h-69h-70v0v179v0v0q-14 -34 -34 -65q-91 -142 -246 -142q-133 0 -210 90.5t-77 245.5v762v0h74h74v0zM468 1172q-65 0 -109.5 54.5t-44.5 133.5t44.5 133.5t109.5 54.5
t110 -54.5t45 -133.5t-45 -133.5t-110 -54.5v0zM468 1246q34 0 57.5 33t23.5 81t-23.5 81t-57.5 33t-57 -33t-23 -81t23 -81t57 -33v0z" />
    <glyph glyph-name="Uhungarumlaut" unicode="&#x170;" horiz-adv-x="1212" 
d="M1081 602q1 -339 -110.5 -489.5t-363.5 -150.5q-251 0 -362 150.5t-112 489.5v868v0h81h81v0v-876q0 -241 75 -347.5t245 -106.5t245 106.5t75 347.5v876v0h73h73v0v-868zM393 1583l149 289h182l-219 -289h-112zM695 1583l149 289h182l-219 -289h-112z" />
    <glyph glyph-name="uhungarumlaut" unicode="&#x171;" 
d="M263 1070v-739q0 -96 45 -150.5t123 -54.5q113 0 177.5 99.5t64.5 274.5v0v570v0h74h74v0v-1070v0h-69h-70v0v179v0v0q-14 -34 -34 -65q-91 -142 -246 -142q-133 0 -210 90.5t-77 245.5v762v0h74h74v0zM246 1213l149 289h182l-219 -289h-112zM548 1213l149 289h182
l-219 -289h-112z" />
    <glyph glyph-name="Uogonek" unicode="&#x172;" horiz-adv-x="1212" 
d="M1081 602q1 -339 -110.5 -489.5t-363.5 -150.5q-251 0 -362 150.5t-112 489.5v868v0h81h81v0v-876q0 -241 75 -347.5t245 -106.5t245 106.5t75 347.5v876v0h73h73v0v-868zM509 -271q0 94 52.5 171.5t132.5 100.5h125q-107 -68 -144.5 -122.5t-37.5 -141.5q0 -48 24 -74.5
t69 -26.5q23 0 52 8t59 22l29 -82q-39 -20 -83.5 -32t-78.5 -12q-90 0 -145 52q-54 52 -54 137z" />
    <glyph glyph-name="uogonek" unicode="&#x173;" 
d="M263 1070v-739q0 -96 45 -150.5t123 -54.5q113 0 177.5 99.5t64.5 274.5v0v570v0h74h74v0v-1070v0h-69h-70v0v179v0v0q-14 -34 -34 -65q-91 -142 -246 -142q-133 0 -210 90.5t-77 245.5v762v0h74h74v0zM518 -271q0 94 52.5 171.5t132.5 100.5h125q-107 -68 -144.5 -122.5
t-37.5 -141.5q0 -48 24 -74.5t69 -26.5q23 0 52 8t59 22l29 -82q-39 -20 -83.5 -32t-78.5 -12q-90 0 -145 52q-54 52 -54 137z" />
    <glyph glyph-name="Ydieresis" unicode="&#x178;" horiz-adv-x="1120" 
d="M478 593v0l-455 877v0h95h95v0l347 -697v0l341 697v0h97h97v0l-455 -873v0v-597h-81h-81v593zM346 1815h154v-207h-154v207zM619 1815h154v-207h-154v207z" />
    <glyph glyph-name="Zacute" unicode="&#x179;" horiz-adv-x="1026" 
d="M39 173l731 1122v0h-681v0v87v88v0h891v-86v-87l-730 -1122v0h737v0v-87v-88v0h-948v86v87zM402 1583l149 289h182l-219 -289h-112z" />
    <glyph glyph-name="zacute" unicode="&#x17a;" horiz-adv-x="840" 
d="M51 145l532 779v0h-493v0v73v73v0h686v-72v-73l-531 -779v0h544v0v-73v-73v0h-738v72v73zM301 1213l149 289h182l-219 -289h-112z" />
    <glyph glyph-name="Zdotaccent" unicode="&#x17b;" horiz-adv-x="1026" 
d="M39 173l731 1122v0h-681v0v87v88v0h891v-86v-87l-730 -1122v0h737v0v-87v-88v0h-948v86v87zM457 1814h154v-207h-154v207z" />
    <glyph glyph-name="zdotaccent" unicode="&#x17c;" horiz-adv-x="840" 
d="M51 145l532 779v0h-493v0v73v73v0h686v-72v-73l-531 -779v0h544v0v-73v-73v0h-738v72v73zM356 1444h154v-207h-154v207z" />
    <glyph glyph-name="Zcaron" unicode="&#x17d;" horiz-adv-x="1026" 
d="M39 173l731 1122v0h-681v0v87v88v0h891v-86v-87l-730 -1122v0h737v0v-87v-88v0h-948v86v87zM456 1584l-166 289h133l111 -192v0l111 192h133l-166 -289h-78h-78z" />
    <glyph glyph-name="zcaron" unicode="&#x17e;" horiz-adv-x="840" 
d="M51 145l532 779v0h-493v0v73v73v0h686v-72v-73l-531 -779v0h544v0v-73v-73v0h-738v72v73zM355 1214l-166 289h133l111 -192v0l111 192h133l-166 -289h-78h-78z" />
    <glyph glyph-name="florin" unicode="&#x192;" 
d="M527 796v0l-97 -677q-38 -272 -118 -406.5t-203 -134.5q-76 0 -126 17l23 161q29 -23 98 -22q63 0 107.5 95t70.5 290l97 677v0h-178v146h199v0l28 199q26 184 100 275.5t197 91.5q76 0 128 -18l-23 -159q-30 22 -98 21q-64 0 -102.5 -52t-53.5 -159l-28 -199v0h191v-146
h-212z" />
    <glyph glyph-name="circumflex" unicode="&#x2c6;" horiz-adv-x="559" 
d="M357 1502l166 -289h-133l-111 192v0l-111 -192h-133l166 289h78h78z" />
    <glyph glyph-name="caron" unicode="&#x2c7;" horiz-adv-x="559" 
d="M201 1214l-166 289h133l111 -192v0l111 192h133l-166 -289h-78h-78z" />
    <glyph glyph-name="uni02C9" unicode="&#x2c9;" horiz-adv-x="559" 
d="M20 1359h518v-146h-518v146z" />
    <glyph glyph-name="breve" unicode="&#x2d8;" horiz-adv-x="559" 
d="M269 1218q-112 0 -173 68t-76 209h83q21 -87 62.5 -124t118.5 -37q73 0 113.5 37t61.5 124h80q-11 -135 -80 -206t-190 -71z" />
    <glyph glyph-name="dotaccent" unicode="&#x2d9;" horiz-adv-x="559" 
d="M203 1444h154v-207h-154v207z" />
    <glyph glyph-name="ring" unicode="&#x2da;" horiz-adv-x="559" 
d="M279 1172q-65 0 -109.5 54.5t-44.5 133.5t44.5 133.5t109.5 54.5t110 -54.5t45 -133.5t-45 -133.5t-110 -54.5v0zM279 1246q34 0 57.5 33t23.5 81t-23.5 81t-57.5 33t-57 -33t-23 -81t23 -81t57 -33v0z" />
    <glyph glyph-name="ogonek" unicode="&#x2db;" horiz-adv-x="559" 
d="M116 -271q0 94 52.5 171.5t132.5 100.5h125q-107 -68 -144.5 -122.5t-37.5 -141.5q0 -48 24 -74.5t69 -26.5q23 0 52 8t59 22l29 -82q-39 -20 -83.5 -32t-78.5 -12q-90 0 -145 52q-54 52 -54 137z" />
    <glyph glyph-name="tilde" unicode="&#x2dc;" horiz-adv-x="559" 
d="M-5 1241q14 113 56 165t118 52q36 0 69 -10.5t79 -36.5q27 -16 45.5 -22t37.5 -6q37 0 57 22t28 71h80q-11 -104 -55.5 -162.5t-112.5 -58.5q-24 0 -56 10t-88 34q-42 18 -64.5 25t-36.5 7q-27 0 -47.5 -24t-29.5 -66h-80z" />
    <glyph glyph-name="hungarumlaut" unicode="&#x2dd;" horiz-adv-x="559" 
d="M42 1213l149 289h182l-219 -289h-112zM344 1213l149 289h182l-219 -289h-112z" />
    <glyph glyph-name="pi" unicode="&#x3c0;" horiz-adv-x="1246" 
d="M112 692q91 160 171.5 213.5t229.5 53.5l338 1q90 0 191 2.5t146 6.5l-30 -164h-301q-32 -171 -29 -326t43 -334q22 -99 7 -134.5t-78 -35.5q-64 0 -97.5 59t-33.5 172q0 95 23 233t78 366h-148l-116 -652q-18 -105 -45 -141.5t-86 -36.5q-66 0 -76.5 45t28.5 165
l211 620h-94q-75 0 -130.5 -31.5t-140.5 -121.5z" />
    <glyph glyph-name="endash" unicode="&#x2013;" 
d="M0 641h934v-148h-934v148z" />
    <glyph glyph-name="emdash" unicode="&#x2014;" horiz-adv-x="1679" 
d="M0 641h1678v-148h-1678v148z" />
    <glyph glyph-name="quoteleft" unicode="&#x2018;" horiz-adv-x="373" 
d="M285 1070v-108h-88h-88v183q0 155 42 236.5t134 103.5v0v-95v0q-56 -13 -75 -71q-13 -45 -15 -140h2h88v-109z" />
    <glyph glyph-name="quoteright" unicode="&#x2019;" horiz-adv-x="373" 
d="M88 1362v108h88h88v-183q0 -155 -42 -236.5t-134 -103.5v0v95v0q56 13 75 71q13 45 15 140h-2h-88v109z" />
    <glyph glyph-name="quotesinglbase" unicode="&#x201a;" horiz-adv-x="373" 
d="M88 108v108h88h88v-183q0 -154 -42 -235.5t-134 -103.5v0v95v0q56 13 75 71q13 45 15 140h-2h-88v108z" />
    <glyph glyph-name="quotedblleft" unicode="&#x201c;" horiz-adv-x="559" 
d="M239 1070v-108h-88h-88v183q0 155 42 236.5t134 103.5v0v-95v0q-56 -13 -75 -71q-13 -45 -15 -140h2h88v-109zM516 1070v-108h-88h-88v183q0 155 42 236.5t134 103.5v0v-95v0q-56 -13 -75 -71q-13 -45 -15 -140h2h88v-109z" />
    <glyph glyph-name="quotedblright" unicode="&#x201d;" horiz-adv-x="559" 
d="M43 1362v108h88h88v-183q0 -155 -42 -236.5t-134 -103.5v0v95v0q56 13 75 71q13 45 15 140h-2h-88v109zM320 1362v108h88h88v-183q0 -155 -42 -236.5t-134 -103.5v0v95v0q56 13 75 71q13 45 15 140h-2h-88v109z" />
    <glyph glyph-name="quotedblbase" unicode="&#x201e;" horiz-adv-x="559" 
d="M43 109v108h88h88v-183q0 -155 -42 -236.5t-134 -103.5v0v95v0q56 13 75 71q13 45 15 140h-2h-88v109zM320 109v108h88h88v-183q0 -155 -42 -236.5t-134 -103.5v0v95v0q56 13 75 71q13 45 15 140h-2h-88v109z" />
    <glyph glyph-name="dagger" unicode="&#x2020;" 
d="M72 1038h316v0v432h158v-432v0h316v-155h-316v0v-1206h-158v1206v0h-316v155z" />
    <glyph glyph-name="daggerdbl" unicode="&#x2021;" 
d="M72 1055h316v0v415h158v-415v0h316v-158h-316v0v-652v0h316v-158h-316v0v-410h-158v410v0h-316v158h316v0v652v0h-316v158z" />
    <glyph glyph-name="bullet" unicode="&#x2022;" horiz-adv-x="588" 
d="M295 1057q111 0 187.5 -93.5t76.5 -228.5t-76.5 -228.5t-187.5 -93.5t-187.5 93.5t-76.5 228.5t76.5 228.5t187.5 93.5z" />
    <glyph glyph-name="ellipsis" unicode="&#x2026;" horiz-adv-x="1679" 
d="M193 216h174v-216h-174v216zM752 216h174v-216h-174v216zM1311 216h174v-216h-174v216z" />
    <glyph glyph-name="perthousand" unicode="&#x2030;" horiz-adv-x="1679" 
d="M275 785q-116 0 -189.5 88t-73.5 226q0 132 77.5 227.5t185.5 95.5q116 0 189.5 -90.5t73.5 -232.5q0 -128 -77.5 -221t-185.5 -93v0zM275 1292q-66 0 -110.5 -55t-44.5 -136q0 -86 42 -136t113 -50q66 0 110.5 53.5t44.5 132.5q0 88 -42 139.5t-113 51.5v0zM163 -38
l662 1475h89l-662 -1475h-89zM801 -10q-116 0 -189.5 88t-73.5 226q0 132 77.5 227.5t185.5 95.5q116 0 189.5 -90.5t73.5 -232.5q0 -128 -77.5 -221t-185.5 -93v0zM801 497q-66 0 -110.5 -55t-44.5 -136q0 -86 42 -136t113 -50q66 0 110.5 53.5t44.5 132.5q0 88 -42 139.5
t-113 51.5v0zM1401 -10q-116 0 -189.5 88t-73.5 226q0 132 77.5 227.5t185.5 95.5q116 0 189.5 -90.5t73.5 -232.5q0 -128 -77.5 -221t-185.5 -93v0zM1401 497q-66 0 -110.5 -55t-44.5 -136q0 -86 42 -136t113 -50q66 0 110.5 53.5t44.5 132.5q0 88 -42 139.5t-113 51.5v0z
" />
    <glyph glyph-name="guilsinglleft" unicode="&#x2039;" horiz-adv-x="559" 
d="M412 736l-175 -167v0l175 -170v-179l-265 257v91v91l265 253v-176z" />
    <glyph glyph-name="guilsinglright" unicode="&#x203a;" horiz-adv-x="559" 
d="M147 399l175 167v0l-175 170v179l265 -257v-91v-91l-265 -253v176z" />
    <glyph glyph-name="fraction" unicode="&#x2044;" horiz-adv-x="281" 
d="M559 1441l-742 -1485h-95l742 1485h95z" />
    <glyph glyph-name="uni2074" unicode="&#x2074;" horiz-adv-x="559" 
d="M329 742h-309v75v76l316 515h54h54v-550v0h87v-116h-87v0v-166h-115v166v0zM329 858v0v359v0v0l-194 -324l-21 -35v0h215z" />
    <glyph glyph-name="Euro" unicode="&#x20ac;" 
d="M889 465v0q-19 -241 -116.5 -372t-257.5 -131q-183 0 -284 186q-68 125 -89 319h-124l28 177h85v31q-1 40 2 79h-115l28 177h100q26 186 90 308q104 198 295 198q145 0 238 -117.5t120 -333.5v0h-159v0q-17 135 -69 208.5t-132 73.5q-117 0 -175 -143q-30 -75 -46 -194
h331l-28 -177h-315l-1 -62v-48h299l-28 -177h-259q15 -115 48 -194q59 -142 174 -142q84 0 136.5 87t64.5 247v0h159z" />
    <glyph glyph-name="glyph350" horiz-adv-x="0" 
d="M-60 625v721v0h-215v0v62v62v0h550v0v-62v-62v0h-214v0v-721v0h-60h-61v0z" />
    <glyph glyph-name="glyph351" horiz-adv-x="0" 
d="M-265 625v0h-59h-59v0v845v0h94h95v0l193 -617v0v0l191 617v0h94h95v0v-845v0h-57h-58v0v712v0l-220 -712h-44h-44l-221 705v0v-705z" />
    <glyph glyph-name="trademark" unicode="&#x2122;" horiz-adv-x="1679" 
d="M293 625v721v0h-215v0v62v62v0h550v0v-62v-62v0h-214v0v-721v0h-60h-61v0zM871 625v0h-59h-59v0v845v0h94h95v0l193 -617v0v0l191 617v0h94h95v0v-845v0h-57h-58v0v712v0l-220 -712h-44h-44l-221 705v0v-705z" />
    <glyph glyph-name="uni2126" unicode="&#x2126;" horiz-adv-x="1246" 
d="M599 0h-413l-74 410l74 12q33 -138 61.5 -171t114.5 -36h79q-32 61 -89.5 161t-109.5 184q-65 106 -103 211.5t-38 180.5q0 209 149.5 334.5t403.5 129.5q241 0 397.5 -129t156.5 -328q0 -79 -37.5 -185t-103.5 -214q-38 -62 -95.5 -162t-103.5 -183h79q75 -1 112 42.5
t64 164.5l73 -12l-74 -410h-412q122 338 129.5 361t30.5 97q46 148 70.5 276.5t24.5 217.5q0 162 -86.5 266.5t-224.5 108.5q-138 -4 -224 -107t-86 -265q0 -78 27.5 -222t67.5 -275q24 -77 70 -209.5t90 -248.5z" />
    <glyph glyph-name="partialdiff" unicode="&#x2202;" horiz-adv-x="1020" 
d="M81 385q0 234 139.5 416.5t317.5 182.5q48 0 96.5 -16t104.5 -50q21 190 -16.5 302t-122.5 112q-28 0 -60.5 -28.5t-51.5 -70.5q-29 -63 -49.5 -82.5t-60.5 -19.5q-60 0 -86.5 49t2.5 106q32 62 104.5 105t146.5 43q196 0 294 -155t97 -465q0 -372 -145.5 -609
t-372.5 -237q-148 0 -242.5 117t-94.5 300zM271 324q0 -114 44 -193t108 -79q108 0 184 178t76 431q0 120 -39 180t-117 60q-107 0 -181.5 -167.5t-74.5 -409.5z" />
    <glyph glyph-name="uni2206" unicode="&#x2206;" horiz-adv-x="1360" 
d="M740 1391l582 -1391h-1285zM667 1077l-446 -883h799z" />
    <glyph glyph-name="product" unicode="&#x220f;" horiz-adv-x="2039" 
d="M197 -315v65q151 17 197.5 88.5t46.5 289.5v901q3 217 -43.5 288.5t-200.5 88.5v65h1645v-65q-151 -17 -197.5 -88.5t-46.5 -288.5v-901q0 -218 46.5 -289.5t197.5 -88.5v-65h-704v65q157 17 202 87t42 291v1262h-725v-1262q0 -218 46.5 -289.5t197.5 -88.5v-65h-704z
" />
    <glyph glyph-name="summation" unicode="&#x2211;" horiz-adv-x="2039" 
d="M416 -315l491 838l-482 948h1119l46 -366l-70 -14l-17 39q-54 142 -142.5 200.5t-250.5 58.5h-403l370 -740l-451 -756h524q138 0 219 51t149 180l22 41l70 -21l-117 -459h-1077z" />
    <glyph glyph-name="minus" unicode="&#x2212;" horiz-adv-x="981" 
d="M92 591h848v-152h-848v152z" />
    <glyph glyph-name="uni2219" unicode="&#x2219;" horiz-adv-x="467" 
d="M129 843h174v-216h-174v216z" />
    <glyph glyph-name="radical" unicode="&#x221a;" horiz-adv-x="1473" 
d="M56 438l298 194l506 -750l480 1647h382v-86h-281l-553 -1817h-74l-570 821l-145 -105z" />
    <glyph glyph-name="infinity" unicode="&#x221e;" horiz-adv-x="2039" 
d="M283 569q0 179 116.5 302t285.5 123q122 0 210.5 -60.5t175.5 -202.5q74 109 157.5 163t177.5 54q153 0 250.5 -105.5t97.5 -271.5q0 -162 -97 -269t-243 -107q-105 0 -189 56.5t-135 161.5q-106 -156 -186.5 -210t-206.5 -54q-174 0 -294 122t-120 298zM394 567
q0 -107 69 -181t169 -74q109 0 193.5 73t159.5 232q-63 113 -137.5 163.5t-180.5 50.5q-115 0 -194 -76.5t-79 -187.5zM1643 569q0 97 -59.5 156.5t-157.5 59.5q-84 0 -146 -50.5t-122 -168.5q41 -100 111.5 -154t159.5 -54q98 0 156 57t58 154z" />
    <glyph glyph-name="integral" unicode="&#x222b;" horiz-adv-x="2039" 
d="M752 -319q0 42 27.5 72.5t65.5 30.5q35 0 60 -25.5t25 -61.5l-9 -60q-1 -9 6 -15.5t19 -6.5q52 -1 69.5 87t-7.5 222q-36 191 -69 425t-45 383q-33 427 23 632t206 205q66 0 112 -42t46 -102q0 -52 -23.5 -78t-70.5 -26q-42 0 -63 19t-21 58q0 10 16 72q2 8 -5.5 14
t-20.5 6q-77 0 -80 -130.5t65 -491.5q54 -284 68 -600.5t-19 -491.5q-23 -120 -74.5 -180t-131.5 -60q-71 0 -120 42t-49 103z" />
    <glyph glyph-name="approxequal" unicode="&#x2248;" horiz-adv-x="2039" 
d="M414 275q57 100 157 169.5t188 69.5q55 0 150 -21.5t216 -60.5q68 -22 146.5 -37t123.5 -15q60 0 132 35.5t116 86.5l37 -22q-48 -115 -136 -182.5t-190 -67.5q-31 0 -105 14t-150 35q-162 44 -254.5 64.5t-130.5 20.5q-64 0 -142 -35t-127 -86zM414 626
q57 100 157 169.5t188 69.5q55 0 150 -21.5t216 -60.5q68 -22 146.5 -37t123.5 -15q60 0 132 35.5t116 86.5l37 -22q-48 -115 -136 -182.5t-190 -67.5q-31 0 -105 14t-150 35q-162 44 -254.5 64.5t-130.5 20.5q-64 0 -142 -35t-127 -86z" />
    <glyph glyph-name="notequal" unicode="&#x2260;" horiz-adv-x="2039" 
d="M410 -93l318 372h-321v135h437l236 276h-673v135h788l317 367h164l-315 -367h312v-135h-427l-236 -276h663v-135h-779l-318 -372h-166z" />
    <glyph glyph-name="lessequal" unicode="&#x2264;" horiz-adv-x="2039" 
d="M1683 1235v-135l-1063 -410l1063 -309v-135l-1266 377v135zM417 135h1266v-135h-1266v135z" />
    <glyph glyph-name="greaterequal" unicode="&#x2265;" horiz-adv-x="2039" 
d="M417 1235l1266 -477v-135l-1266 -377v135l1063 309l-1063 410v135zM417 135h1266v-135h-1266v135z" />
    <glyph glyph-name="lozenge" unicode="&#x25ca;" horiz-adv-x="1171" 
d="M530 1423h110l404 -712l-404 -711h-110l-404 711zM585 1324l-349 -613l349 -615l349 615z" />
    <glyph glyph-name="uniEFED" unicode="&#xefed;" horiz-adv-x="559" 
d="M203 1814h154v-207h-154v207z" />
    <glyph glyph-name="uniEFEE" unicode="&#xefee;" horiz-adv-x="559" 
d="M269 1588q-112 0 -173 68t-76 209h83q21 -87 62.5 -124t118.5 -37q73 0 113.5 37t61.5 124h80q-11 -135 -80 -206t-190 -71z" />
    <glyph glyph-name="uniEFEF" unicode="&#xefef;" horiz-adv-x="559" 
d="M20 1773h518v-146h-518v146z" />
    <glyph glyph-name="uniEFF0" unicode="&#xeff0;" horiz-adv-x="559" 
d="M42 1583l149 289h182l-219 -289h-112zM344 1583l149 289h182l-219 -289h-112z" />
    <glyph glyph-name="uniEFF1" unicode="&#xeff1;" horiz-adv-x="559" 
d="M116 -271q0 94 52.5 171.5t132.5 100.5h125q-107 -68 -144.5 -122.5t-37.5 -141.5q0 -48 24 -74.5t69 -26.5q23 0 52 8t59 22l29 -82q-39 -20 -83.5 -32t-78.5 -12q-90 0 -145 52q-54 52 -54 137z" />
    <glyph glyph-name="uniEFF2" unicode="&#xeff2;" horiz-adv-x="559" 
d="M320 0l-76 -125v0l51 6q65 0 103.5 -41.5t38.5 -111.5q0 -85 -54.5 -136.5t-144.5 -51.5q-35 0 -79.5 12t-82.5 32l29 82q30 -14 59 -22t49 -8q48 0 71.5 21.5t23.5 64.5q0 37 -21.5 58.5t-58.5 21.5q-7 0 -24.5 -4.5t-40.5 -11.5l-29 37l108 177h78z" />
    <glyph glyph-name="uniEFF3" unicode="&#xeff3;" horiz-adv-x="559" 
d="M279 1542q-65 0 -109.5 54.5t-44.5 133.5t44.5 133.5t109.5 54.5t110 -54.5t45 -133.5t-45 -133.5t-110 -54.5v0zM279 1616q34 0 57.5 33t23.5 81t-23.5 81t-57.5 33t-57 -33t-23 -81t23 -81t57 -33v0z" />
    <glyph glyph-name="uniEFF4" unicode="&#xeff4;" horiz-adv-x="559" 
d="M201 1584l-166 289h133l111 -192v0l111 192h133l-166 -289h-78h-78z" />
    <glyph glyph-name="uniEFF5" unicode="&#xeff5;" horiz-adv-x="559" 
d="M-5 1611q14 113 56 165t118 52q36 0 69 -10.5t79 -36.5q27 -16 45.5 -22t37.5 -6q37 0 57 22t28 71h80q-11 -104 -55.5 -162.5t-112.5 -58.5q-24 0 -56 10t-88 34q-42 18 -64.5 25t-36.5 7q-27 0 -47.5 -24t-29.5 -66h-80z" />
    <glyph glyph-name="uniEFF6" unicode="&#xeff6;" horiz-adv-x="559" 
d="M68 1815h154v-207h-154v207zM341 1815h154v-207h-154v207z" />
    <glyph glyph-name="uniEFF7" unicode="&#xeff7;" horiz-adv-x="559" 
d="M357 1872l166 -289h-133l-111 192v0l-111 -192h-133l166 289h78h78z" />
    <glyph glyph-name="uniEFF8" unicode="&#xeff8;" horiz-adv-x="559" 
d="M242 1583l-219 289h182l149 -289h-112z" />
    <glyph glyph-name="uniEFF9" unicode="&#xeff9;" horiz-adv-x="559" 
d="M205 1583l149 289h182l-219 -289h-112z" />
    <glyph glyph-name="uniF001" unicode="&#xf001;" horiz-adv-x="840" 
d="M292 924v0v-924v0h-74h-74v0v924v0h-121v146h121v0v135q0 150 54 216t177 66q36 0 65 -5v-155q-19 4 -43 4q-56 0 -80.5 -29t-24.5 -97v-135v0h148v-146h-148zM578 0v1070v0h74h74v0v-1070v0h-74h-74v0zM577 1470h150v-208h-150v208z" />
    <glyph glyph-name="uniF002" unicode="&#xf002;" horiz-adv-x="840" 
d="M292 924v0v-924v0h-74h-74v0v924v0h-121v146h121v0v135q0 150 54 216t177 66q36 0 65 -5v-155q-19 4 -43 4q-56 0 -80.5 -29t-24.5 -97v-135v0h148v-146h-148zM580 0v1470v0h74h74v0v-1470v0h-74h-74v0z" />
    <glyph glyph-name="uniFB01" unicode="&#xfb01;" horiz-adv-x="840" 
d="M292 924v0v-924v0h-74h-74v0v924v0h-121v146h121v0v135q0 150 54 216t177 66q36 0 65 -5v-155q-19 4 -43 4q-56 0 -80.5 -29t-24.5 -97v-135v0h148v-146h-148zM578 0v1070v0h74h74v0v-1070v0h-74h-74v0zM577 1470h150v-208h-150v208z" />
  </font>
</defs>
</svg>
